<?xml version="1.0" encoding="UTF-8" standalone="no"?>
<!-- Generator: Adobe Illustrator 16.0.0, SVG Export Plug-In . SVG Version: 6.00 Build 0)  -->

<svg
   version="1.1"
   id="Calque_1"
   x="0px"
   y="0px"
   width="170.078px"
   height="113.386px"
   viewBox="0 0 170.078 113.386"
   enable-background="new 0 0 170.078 113.386"
   xml:space="preserve"
   sodipodi:docname="LOGO_GENOM'IC_WHITE.svg"
   inkscape:version="1.1 (c68e22c387, 2021-05-23)"
   xmlns:inkscape="http://www.inkscape.org/namespaces/inkscape"
   xmlns:sodipodi="http://sodipodi.sourceforge.net/DTD/sodipodi-0.dtd"
   xmlns="http://www.w3.org/2000/svg"
   xmlns:svg="http://www.w3.org/2000/svg"><defs
   id="defs97" /><sodipodi:namedview
   id="namedview95"
   pagecolor="#ffffff"
   bordercolor="#666666"
   borderopacity="1.0"
   inkscape:pageshadow="2"
   inkscape:pageopacity="0.0"
   inkscape:pagecheckerboard="0"
   showgrid="false"
   inkscape:zoom="7.3201706"
   inkscape:cx="85.039001"
   inkscape:cy="56.692668"
   inkscape:window-width="1920"
   inkscape:window-height="1011"
   inkscape:window-x="0"
   inkscape:window-y="0"
   inkscape:window-maximized="1"
   inkscape:current-layer="Calque_1" />
<g
   id="g92"
   style="fill:#ffffff">
	<g
   id="g66"
   style="fill:#ffffff">
		<g
   id="g64"
   style="fill:#ffffff">
			<g
   id="g14"
   style="fill:#ffffff">
				<g
   id="g8"
   style="fill:#ffffff">
					<g
   id="g4"
   style="fill:#ffffff">
						<path
   fill="#006499"
   d="M45.734,34.649c0.635,0.207,1.043,0.992,1.043,1.49c0,0.793-1.01,0.9-1.01,2.346        c0,1.191,0.9,1.95,2.021,1.95c1.117,0,2.023-0.829,2.023-2.095C49.812,36.333,47.881,35.052,45.734,34.649L45.734,34.649z"
   id="path2"
   style="fill:#ffffff" />
					</g>
					<circle
   fill="#006499"
   cx="30.796"
   cy="30.606"
   r="2.054"
   id="circle6"
   style="fill:#ffffff" />
				</g>
				<path
   fill="#006499"
   d="M39.824,42.729c0-1.742,0-3.501,0-4.646c0-3.013,1.732-3.433,1.732-3.433      c-3.062,0-5.547,3.66-5.547,8.173c0,4.514,2.484,8.174,5.547,8.174c0,0-1.732-0.423-1.732-3.437c0-1.143,0-2.902,0-4.643V42.729      z"
   id="path10"
   style="fill:#ffffff" />
				<path
   fill="#006499"
   d="M27.732,37.011l0.02,0.002c0,0,2.611,0.477,2.633,2.94l0.01,1.229v9.771H33.6v-9.771v-0.717      c0-0.059,0-0.117,0-0.17C33.6,36.551,27.732,37.011,27.732,37.011z"
   id="path12"
   style="fill:#ffffff" />
			</g>
			<rect
   x="54.998"
   y="28.268"
   fill="#303863"
   width="1.301"
   height="22.5"
   id="rect16"
   style="fill:#ffffff" />
			<g
   id="g34"
   style="fill:#ffffff">
				<path
   fill="#303863"
   d="M58.437,64.116h4.882v5.394c-1.22,0.491-2.623,0.692-3.953,0.692c-3.99,0-6.049-2.405-6.049-6.358      c0-3.28,1.749-6.396,5.538-6.396c1.986,0,3.389,0.783,4.428,2.022l-0.947,0.838c-0.966-1.221-2.096-1.73-3.443-1.73      c-2.934,0-4.245,2.642-4.245,5.247c0,3.151,1.403,5.247,4.828,5.247c0.838,0,1.804-0.091,2.605-0.401v-3.425h-3.644V64.116z"
   id="path18"
   style="fill:#ffffff" />
				<path
   fill="#303863"
   d="M67.148,69.964V57.685h7.306v1.166h-6.013v4.19h5.466v1.129h-5.466v4.628h6.377v1.166H67.148z"
   id="path20"
   style="fill:#ffffff" />
				<path
   fill="#303863"
   d="M87.429,70.128l-7.615-10.075v9.911h-1.257V57.521h0.947l7.634,10.13v-9.966h1.257v12.443H87.429z"
   id="path22"
   style="fill:#ffffff" />
				<path
   fill="#303863"
   d="M97.418,70.202c-3.862,0-5.83-3.062-5.83-6.396s1.968-6.358,5.83-6.358s5.83,3.024,5.83,6.358      S101.28,70.202,97.418,70.202z M97.418,58.578c-2.97,0-4.5,2.496-4.5,5.247c0,2.715,1.53,5.247,4.5,5.247s4.5-2.496,4.5-5.247      C101.918,61.11,100.388,58.578,97.418,58.578z"
   id="path24"
   style="fill:#ffffff" />
				<path
   fill="#303863"
   d="M116.206,69.964v-9.838l-3.789,6.103h-0.929l-3.79-5.957v9.692h-1.257V57.521h1.021l4.518,7.251      l4.519-7.251h1.002v12.443H116.206z"
   id="path26"
   style="fill:#ffffff" />
				<path
   fill="#303863"
   d="M120.748,62.148l1.002-4.463h1.166l-1.257,4.463H120.748z"
   id="path28"
   style="fill:#ffffff" />
				<path
   fill="#303863"
   d="M126.435,69.964V57.685h1.293v12.279H126.435z"
   id="path30"
   style="fill:#ffffff" />
				<path
   fill="#303863"
   d="M136.457,57.448c1.985,0,3.389,0.783,4.427,2.022l-0.947,0.838c-0.966-1.221-2.096-1.73-3.443-1.73      c-2.934,0-4.245,2.642-4.245,5.247s1.312,5.247,4.245,5.247c1.348,0,2.478-0.511,3.443-1.73l0.947,0.838      c-1.038,1.238-2.441,2.022-4.427,2.022c-3.79,0-5.539-3.116-5.539-6.358C130.918,60.563,132.667,57.448,136.457,57.448z"
   id="path32"
   style="fill:#ffffff" />
			</g>
			<g
   id="g62"
   style="fill:#ffffff">
				<g
   id="g60"
   style="fill:#ffffff">
					<path
   fill="#303863"
   d="M56.903,74.568c0.982,0,1.675,0.387,2.188,0.999l-0.467,0.414c-0.479-0.604-1.036-0.855-1.702-0.855       c-1.449,0-2.098,1.306-2.098,2.593c0,1.288,0.648,2.593,2.098,2.593c0.666,0,1.224-0.252,1.702-0.854l0.467,0.414       c-0.513,0.611-1.205,0.999-2.188,0.999c-1.872,0-2.736-1.54-2.736-3.142C54.167,76.107,55.031,74.568,56.903,74.568z"
   id="path36"
   style="fill:#ffffff" />
					<path
   fill="#303863"
   d="M62.123,80.87c-1.306,0-1.944-0.964-1.944-2.151c0-1.188,0.639-2.125,1.944-2.125       s1.944,0.963,1.944,2.151S63.429,80.87,62.123,80.87z M62.123,77.061c-0.954,0-1.333,0.702-1.333,1.666       c0,0.945,0.379,1.674,1.333,1.674s1.332-0.702,1.332-1.665C63.455,77.791,63.077,77.061,62.123,77.061z"
   id="path38"
   style="fill:#ffffff" />
					<path
   fill="#303863"
   d="M67.209,77.133c-0.504,0-0.9,0.306-1.188,0.738v2.881h-0.567V76.71h0.514v0.621       c0.314-0.414,0.702-0.738,1.323-0.738c0.18,0,0.378,0.036,0.549,0.09l-0.144,0.549C67.542,77.169,67.38,77.133,67.209,77.133z"
   id="path40"
   style="fill:#ffffff" />
					<path
   fill="#303863"
   d="M70.367,80.87c-1.341,0-1.998-1.026-1.998-2.125c0-1.458,0.855-2.151,1.882-2.151       c1.116,0,1.755,0.648,1.854,1.854c0.009,0.108,0.018,0.225,0.018,0.342h-3.16c0.027,0.937,0.576,1.576,1.45,1.576       c0.485,0,0.882-0.181,1.206-0.541l0.351,0.369C71.583,80.609,71.088,80.87,70.367,80.87z M70.251,77.061       c-0.829,0-1.18,0.54-1.27,1.261h2.521C71.502,77.628,71.069,77.061,70.251,77.061z"
   id="path42"
   style="fill:#ffffff" />
					<path
   fill="#303863"
   d="M76.964,78.16v2.593h-0.64v-6.067h3.79v0.576h-3.15v2.322h2.881v0.576H76.964z"
   id="path44"
   style="fill:#ffffff" />
					<path
   fill="#303863"
   d="M83.786,80.752v-0.531c-0.333,0.433-0.828,0.648-1.396,0.648c-0.81,0-1.413-0.469-1.413-1.225       c0-0.909,0.738-1.251,1.575-1.251c0.441,0,0.847,0.081,1.197,0.216v-0.54c0-0.612-0.405-0.964-1.098-0.964       c-0.433,0-0.819,0.153-1.116,0.522l-0.379-0.36c0.352-0.414,0.864-0.675,1.521-0.675c0.964,0,1.639,0.495,1.639,1.413v2.746       H83.786z M83.75,79.06c-0.333-0.145-0.711-0.226-1.098-0.226c-0.54,0-1.107,0.172-1.107,0.802c0,0.45,0.369,0.747,0.972,0.747       c0.495,0,0.945-0.225,1.233-0.675V79.06z"
   id="path46"
   style="fill:#ffffff" />
					<path
   fill="#303863"
   d="M87.683,80.87c-1.369,0-1.963-1.045-1.963-2.143c0-1.197,0.675-2.134,1.953-2.134       c0.693,0,1.197,0.261,1.566,0.675l-0.387,0.388c-0.297-0.343-0.666-0.559-1.161-0.559c-0.99,0-1.378,0.738-1.378,1.611       c0,0.838,0.414,1.657,1.404,1.657c0.46,0,0.892-0.172,1.216-0.541l0.351,0.369C88.897,80.609,88.402,80.87,87.683,80.87z"
   id="path48"
   style="fill:#ffffff" />
					<path
   fill="#303863"
   d="M91.012,74.568c0.226,0,0.388,0.162,0.388,0.387c0,0.226-0.162,0.378-0.388,0.378       c-0.225,0-0.378-0.152-0.378-0.378C90.634,74.73,90.787,74.568,91.012,74.568z M90.733,80.752V76.71H91.3v4.042H90.733z"
   id="path50"
   style="fill:#ffffff" />
					<path
   fill="#303863"
   d="M93.154,80.752v-6.067h0.566v6.067H93.154z"
   id="path52"
   style="fill:#ffffff" />
					<path
   fill="#303863"
   d="M95.853,74.568c0.226,0,0.388,0.162,0.388,0.387c0,0.226-0.162,0.378-0.388,0.378       c-0.225,0-0.378-0.152-0.378-0.378C95.475,74.73,95.628,74.568,95.853,74.568z M95.574,80.752V76.71h0.566v4.042H95.574z"
   id="path54"
   style="fill:#ffffff" />
					<path
   fill="#303863"
   d="M98.175,77.197h-0.729V76.71h0.729v-1.449h0.567v1.449h1.215v0.486h-1.215v1.962       c0,0.612,0.18,1.197,0.972,1.197c0.127,0,0.243-0.018,0.334-0.036l0.081,0.514c-0.136,0.018-0.352,0.036-0.541,0.036       c-1.143,0-1.413-0.855-1.413-1.692V77.197z"
   id="path56"
   style="fill:#ffffff" />
					<path
   fill="#303863"
   d="M102.485,82.625V80.87l-1.72-4.159h0.621l1.396,3.502l1.396-3.502h0.576l-1.701,4.159v1.755H102.485z"
   id="path58"
   style="fill:#ffffff" />
				</g>
			</g>
		</g>
	</g>
	<g
   id="g90"
   style="fill:#ffffff">
		<path
   fill="#006499"
   d="M68.284,44.993c-0.208,0-0.411-0.109-0.521-0.303c-0.164-0.287-0.063-0.653,0.224-0.818    c0.016-0.01,1.652-0.966,2.024-2.611c0.496-3.031-1.476-4.047-3.759-5.225c-0.471-0.243-0.943-0.487-1.396-0.75    c-2.939-1.708-3.104-5.222-3.11-5.371c-0.013-0.331,0.245-0.608,0.575-0.621c0.372-0.013,0.61,0.245,0.624,0.575    c0.001,0.03,0.155,3.008,2.515,4.38c0.435,0.252,0.889,0.487,1.342,0.72c2.358,1.215,5.031,2.593,4.386,6.521    c-0.497,2.207-2.522,3.376-2.608,3.425C68.485,44.967,68.385,44.993,68.284,44.993z"
   id="path68"
   style="fill:#ffffff" />
		<path
   fill="#303863"
   d="M68.034,35.368c-0.207,0-0.408-0.107-0.52-0.298c-0.167-0.287-0.069-0.654,0.217-0.82    c2.359-1.372,2.514-4.351,2.515-4.38c0.014-0.322,0.279-0.575,0.6-0.575c0.008,0,0.016,0,0.024,0    c0.33,0.013,0.588,0.291,0.575,0.621c-0.006,0.149-0.171,3.663-3.11,5.371C68.24,35.341,68.136,35.368,68.034,35.368z"
   id="path70"
   style="fill:#ffffff" />
		<path
   fill="#006499"
   d="M62.283,51.367c-0.008,0-0.016,0-0.024,0c-0.33-0.013-0.588-0.291-0.575-0.621    c0.006-0.149,0.171-3.663,3.11-5.371c0.287-0.168,0.654-0.068,0.82,0.217c0.167,0.287,0.069,0.654-0.217,0.82    c-2.359,1.372-2.514,4.351-2.515,4.38C62.869,51.114,62.604,51.367,62.283,51.367z"
   id="path72"
   style="fill:#ffffff" />
		<path
   fill="#303863"
   d="M70.748,51.367c-0.32,0-0.586-0.253-0.6-0.575c-0.001-0.03-0.155-3.008-2.515-4.38    c-0.435-0.252-0.889-0.487-1.342-0.72c-2.358-1.215-5.031-2.593-4.386-6.521c0.497-2.207,2.522-3.376,2.608-3.425    c0.288-0.161,0.652-0.062,0.816,0.225c0.164,0.287,0.063,0.653-0.224,0.818c-0.016,0.01-1.652,0.966-2.024,2.611    c-0.496,3.031,1.476,4.047,3.759,5.225c0.471,0.243,0.943,0.487,1.396,0.75c2.939,1.708,3.104,5.222,3.11,5.371    c0.013,0.331-0.245,0.608-0.575,0.621C70.764,51.367,70.756,51.367,70.748,51.367z"
   id="path74"
   style="fill:#ffffff" />
		<path
   fill="#303863"
   d="M69.096,31.18h-5.004c-0.331,0-0.6-0.269-0.6-0.6s0.269-0.6,0.6-0.6h5.004c0.331,0,0.6,0.269,0.6,0.6    S69.427,31.18,69.096,31.18z"
   id="path76"
   style="fill:#ffffff" />
		<path
   fill="#006499"
   d="M68.184,33.368h-3.18c-0.331,0-0.6-0.269-0.6-0.6s0.269-0.6,0.6-0.6h3.18c0.331,0,0.6,0.269,0.6,0.6    S68.515,33.368,68.184,33.368z"
   id="path78"
   style="fill:#ffffff" />
		<path
   fill="#006499"
   d="M69.096,50.68h-5.004c-0.331,0-0.6-0.269-0.6-0.6s0.269-0.6,0.6-0.6h5.004c0.331,0,0.6,0.269,0.6,0.6    S69.427,50.68,69.096,50.68z"
   id="path80"
   style="fill:#ffffff" />
		<path
   fill="#303863"
   d="M68.184,48.493h-3.18c-0.331,0-0.6-0.269-0.6-0.6s0.269-0.6,0.6-0.6h3.18c0.331,0,0.6,0.269,0.6,0.6    S68.515,48.493,68.184,48.493z"
   id="path82"
   style="fill:#ffffff" />
		<path
   fill="#006499"
   d="M69.096,40.836h-5.004c-0.331,0-0.6-0.269-0.6-0.6s0.269-0.6,0.6-0.6h5.004c0.331,0,0.6,0.269,0.6,0.6    S69.427,40.836,69.096,40.836z"
   id="path84"
   style="fill:#ffffff" />
		<path
   fill="#303863"
   d="M68.184,43.024h-3.18c-0.331,0-0.6-0.269-0.6-0.6s0.269-0.6,0.6-0.6h3.18c0.331,0,0.6,0.269,0.6,0.6    S68.515,43.024,68.184,43.024z"
   id="path86"
   style="fill:#ffffff" />
		<path
   fill="#303863"
   d="M68.184,38.836h-3.18c-0.331,0-0.6-0.269-0.6-0.6s0.269-0.6,0.6-0.6h3.18c0.331,0,0.6,0.269,0.6,0.6    S68.515,38.836,68.184,38.836z"
   id="path88"
   style="fill:#ffffff" />
	</g>
</g>
</svg>
