<?xml version="1.0" encoding="UTF-8" standalone="no"?>
<!-- Generator: Adobe Illustrator 26.3.1, SVG Export Plug-In . SVG Version: 6.00 Build 0)  -->

<svg
   version="1.1"
   id="logo_paul_5_xA0_Image_00000024003944768920300260000014176394035079969450_"
   x="0px"
   y="0px"
   viewBox="0 0 1662.1438 368.38199"
   xml:space="preserve"
   sodipodi:docname="logo_app_3.svg"
   width="1662.1437"
   height="368.38199"
   inkscape:version="1.2 (dc2aedaf03, 2022-05-15)"
   xmlns:inkscape="http://www.inkscape.org/namespaces/inkscape"
   xmlns:sodipodi="http://sodipodi.sourceforge.net/DTD/sodipodi-0.dtd"
   xmlns="http://www.w3.org/2000/svg"
   xmlns:svg="http://www.w3.org/2000/svg"><defs
   id="defs159"><clipPath
     clipPathUnits="userSpaceOnUse"
     id="clipPath1264"><rect
       style="fill:none;fill-opacity:1;fill-rule:nonzero;stroke:#990017;stroke-width:9.35786;stroke-miterlimit:4;stroke-dasharray:none"
       id="rect1266"
       width="550.41589"
       height="389.81155"
       x="-559.31415"
       y="92.330109"
       transform="rotate(-90)" /></clipPath></defs><sodipodi:namedview
   id="namedview157"
   pagecolor="#ffffff"
   bordercolor="#666666"
   borderopacity="1.0"
   inkscape:pageshadow="2"
   inkscape:pageopacity="0.0"
   inkscape:pagecheckerboard="0"
   showgrid="false"
   inkscape:zoom="0.54447523"
   inkscape:cx="876.99123"
   inkscape:cy="251.61843"
   inkscape:window-width="1920"
   inkscape:window-height="1011"
   inkscape:window-x="0"
   inkscape:window-y="0"
   inkscape:window-maximized="1"
   inkscape:current-layer="logo_paul_5_xA0_Image_00000024003944768920300260000014176394035079969450_"
   inkscape:snap-page="false"
   inkscape:showpageshadow="2"
   inkscape:deskcolor="#d1d1d1" />
<style
   type="text/css"
   id="style2">
	.st0{fill:#006499;}
	.st1{fill:#87B6CF;}
	.st2{fill:#71A8C6;}
	.st3{fill:#FEFEFF;}
	.st4{fill:#016499;}
	.st5{fill:#04669A;}
	.st6{fill:#016599;}
	.st7{fill:#02669A;}
	.st8{fill:#03659A;}
	.st9{fill:#03669A;}
	.st10{fill:#07699C;}
	.st11{fill:#F7FBFC;}
	.st12{fill:#146FA0;}
	.st13{fill:#166FA0;}
	.st14{fill:#0F6D9F;}
	.st15{fill:#09699C;}
	.st16{fill:#2379A7;}
	.st17{fill:#0A6A9D;}
	.st18{fill:#2879A7;}
	.st19{fill:#599ABD;}
	.st20{fill:#1871A2;}
	.st21{fill:#2077A5;}
	.st22{fill:#1A73A3;}
	.st23{fill:#6AA5C4;}
	.st24{fill:#3D88B1;}
	.st25{fill:#277CA9;}
	.st26{fill:#6CA4C3;}
	.st27{fill:#629DBE;}
	.st28{fill:#5BA0C0;}
	.st29{fill:#5495B9;}
	.st30{fill:#458CB3;}
	.st31{fill:#478EB5;}
	.st32{fill:#2480AB;}
	.st33{fill:#77A3C2;}
	.st34{fill:#368EB4;}
	.st35{fill:#7FABC8;}
	.st36{fill:#2F86AF;}
</style>
<rect
   style="fill:#006499;fill-opacity:1;stroke:none;stroke-width:10.1419"
   id="rect921"
   width="1662.1437"
   height="368.38199"
   x="0"
   y="0" />
<g
   id="g154"
   style="fill-opacity:1;fill-rule:nonzero"
   transform="matrix(0,0.94502536,-0.94502536,0,1476.2569,-87.253835)"
   clip-path="url(#clipPath1264)">
	<g
   id="g152"
   style="fill-opacity:1;fill-rule:nonzero">
		<path
   class="st0"
   d="m 0.96,0 c 188.63,0 377.26,0 565.9,0 0,188.79 0,377.58 0,566.38 -0.83,0.45 -1.73,0.23 -2.59,0.23 -186.91,0.01 -373.82,0.01 -560.74,0 -0.87,0 -1.76,0.14 -2.61,-0.15 C 0.49,566.01 0.51,565.44 0.49,564.89 0.47,564.01 0.48,563.13 0.48,562.25 0.48,376.24 0.48,190.23 0.5,4.22 0.5,2.81 0.1,1.33 0.96,0 Z"
   id="path4"
   style="fill-opacity:1;fill-rule:nonzero" />
		<path
   class="st1"
   d="M 0.96,0 C 0.69,1.1 0.81,2.23 0.81,3.34 c -0.01,49.78 0,99.55 0,149.33 0,136.71 0,273.41 0.01,410.12 0,1.19 -0.13,2.4 0.15,3.58 0.32,0.17 0.32,0.33 0,0.49 C 0,566.84 0,566.84 0,566.14 0,565.66 0,565.18 0,564.7 0,377.19 0,189.67 0,2.16 0,1.68 0,1.2 0,0.72 0,0.02 0,0.02 0.96,0 Z"
   id="path6"
   style="fill-opacity:1;fill-rule:nonzero" />
		<path
   class="st2"
   d="m 0.96,566.86 c 0,-0.16 0,-0.33 0,-0.49 1.12,0 2.24,0.01 3.36,0.01 187.51,0 375.02,0 562.54,0 0,0.16 0.06,0.38 -0.02,0.46 -0.08,0.08 -0.3,0.02 -0.46,0.02 -0.56,0 -1.12,0 -1.68,0 -187.91,0 -375.83,0 -563.74,0 z"
   id="path8"
   style="fill-opacity:1;fill-rule:nonzero" />
		<path
   class="st3"
   d="m 276.87,127.67 c -0.26,0.48 -0.02,0.93 0.1,1.38 0.95,3.63 1.89,7.26 2.64,10.94 0.43,2.1 1.16,4.15 1.85,6.19 2.15,6.44 4.41,12.84 7.25,19.02 1.03,2.24 2.08,4.46 3.48,6.49 0.64,-0.18 0.45,-0.64 0.45,-0.99 -0.03,-3.52 -0.11,-7.03 -0.11,-10.55 0.01,-6.48 0.48,-12.93 1.33,-19.36 0.29,-2.19 0.56,-2.23 -1.99,-2.91 -1.87,-0.5 -3.65,-0.45 -5.13,1.03 -0.17,0.17 -0.38,0.3 -0.59,0.41 -1.52,0.84 -3.06,0.29 -3.72,-1.32 -0.48,-1.15 -0.45,-2.34 -0.23,-3.54 0.29,-1.58 0.86,-3.07 1.66,-4.47 0.19,-0.33 0.47,-0.72 0.14,-1.1 -0.45,-0.51 -0.41,-0.93 0.03,-1.44 6.44,-7.48 10.88,-16.14 14.59,-25.19 4.31,-10.52 7.54,-21.38 9.75,-32.54 0.4,-2 1.43,-3.31 3.19,-4.18 1.96,-0.96 4.06,-1.45 6.2,-1.76 1.5,-0.22 3.01,-0.37 4.52,-0.49 0.68,-0.05 1.2,-0.26 1.7,-0.72 4.52,-4.15 9.92,-6.65 15.72,-8.37 5.62,-1.66 11.38,-2.52 17.21,-2.89 4.79,-0.3 9.58,-0.35 14.38,-0.02 1.29,0.09 1.54,0.25 1.77,1.48 0.24,1.25 0.39,2.53 0.52,3.8 0.1,0.95 0.1,1.91 0.15,2.87 0.02,0.31 -0.01,0.69 0.36,0.78 0.33,0.08 0.58,-0.2 0.79,-0.44 0.62,-0.73 1.27,-1.44 1.83,-2.21 1.12,-1.56 2.17,-3.16 3.26,-4.74 0.95,-1.38 1.89,-2.78 2.89,-4.12 0.57,-0.77 1.23,-1.47 1.89,-2.16 1.13,-1.2 2.5,-2.03 4.17,-2.15 4.01,-0.28 7.29,-2.19 10.43,-4.46 1.49,-1.08 2.89,-2.27 4.34,-3.4 1.01,-0.78 2,-1.6 3.07,-2.29 1.56,-1.01 3.28,-1.66 5.18,-1.67 1.74,-0.01 3.29,-0.58 4.74,-1.49 0.81,-0.51 1.61,-1.05 2.44,-1.52 1.79,-1.01 3.68,-1.46 5.76,-1.02 1.89,0.4 3.82,0.26 5.74,0.23 2.32,-0.04 4.64,-0.12 6.95,-0.04 1.51,0.05 3.02,0.27 4.52,0.53 2.42,0.43 4.36,1.65 5.36,3.96 0.95,2.19 2.61,3.33 4.87,3.82 3.34,0.73 6.31,2.23 8.9,4.48 1.38,1.2 2.92,1.77 4.81,1.76 2.88,-0.02 4.36,1.61 4.49,4.49 0.08,1.7 -0.29,3.33 -0.78,4.94 -0.68,2.23 -1.59,4.36 -2.69,6.4 -1.87,3.45 -3.41,7.04 -4.81,10.7 -0.57,1.49 -1.21,2.96 -1.9,4.39 -1.21,2.52 -3.16,4.16 -5.92,4.8 -1.32,0.31 -2.62,0.69 -3.92,1.11 -2.25,0.72 -3.64,2.22 -4.07,4.58 -0.06,0.31 -0.17,0.62 -0.22,0.93 -0.63,3.93 -2.77,6.91 -5.82,9.32 -1.95,1.54 -4.05,2.87 -6.27,3.97 -3,1.49 -5.48,3.57 -7.47,6.24 -2.38,3.18 -5.49,5.26 -9.26,6.49 -2.19,0.72 -4.3,1.71 -6.43,2.62 -1.69,0.72 -3.37,1.44 -5.15,1.94 -2.81,0.79 -5.65,0.98 -8.55,0.61 -0.79,-0.1 -1.59,-0.21 -2.38,-0.19 -1.49,0.04 -2.82,0.55 -3.85,1.67 -0.65,0.7 -1.28,1.43 -1.9,2.16 -1.96,2.35 -4.46,3.56 -7.51,3.68 -3.35,0.13 -6.71,0.29 -10.06,0.43 -0.48,0.02 -0.97,0.05 -1.43,-0.02 -0.36,-0.06 -0.7,-0.27 -1.12,-0.44 -0.64,0.94 -1.26,1.86 -1.89,2.77 -4.94,7.17 -9.82,14.39 -14.83,21.51 -9.77,13.89 -18.19,28.56 -25.48,43.88 -1.92,4.04 -3.89,8.05 -5.83,12.09 -1.7,3.54 -3.04,7.22 -3.72,11.1 -0.18,1.02 -0.24,2.06 -0.3,3.1 -0.03,0.51 0.16,0.92 0.75,1.04 2.88,0.63 4.98,2.42 6.82,4.6 2.38,2.81 4.47,5.83 6.44,8.94 0.94,1.49 2.03,2.83 3.35,4.04 5.16,4.76 8.85,10.46 10.7,17.29 1.48,5.45 1.4,10.9 0.22,16.37 -0.08,0.39 -0.18,0.78 -0.28,1.16 -0.21,0.81 -0.12,1.54 0.38,2.27 0.68,0.98 1.28,2.03 1.88,3.06 4.92,8.48 8.45,17.54 11.04,26.98 2.44,8.88 3.99,17.92 4.94,27.07 1.08,10.36 1.25,20.74 0.75,31.13 -0.4,8.31 -1.3,16.57 -3.22,24.68 -0.29,1.24 -0.63,2.48 -0.99,3.7 -0.22,0.76 -0.44,1.55 -0.8,2.25 -2.67,5.28 -5.47,10.49 -9.72,14.73 -3.82,3.81 -8.46,5.92 -13.81,6.52 -0.24,0.03 -0.48,0.06 -0.72,0.05 -0.87,-0.03 -1.26,0.44 -1.51,1.23 -0.73,2.29 -1.23,4.63 -1.65,6.99 -0.96,5.43 -1.6,10.9 -2.08,16.4 -1.75,20 -2.25,40.05 -2.31,60.11 -0.01,3.69 -0.34,7.34 -0.69,11 -0.51,5.33 -1.1,10.65 -1.73,15.96 -0.57,4.84 -1.22,9.67 -2.36,14.42 -0.48,2.02 -1.05,4.02 -1.94,5.91 -0.47,1.01 -1.03,1.98 -1.62,2.93 -0.56,0.9 -1.36,1.57 -2.29,2.06 -1.66,0.87 -3.08,0.14 -3.28,-1.7 -0.12,-1.12 0.01,-2.23 0.24,-3.33 0.66,-3.22 1.63,-6.35 2.82,-9.4 2.47,-6.31 3.67,-12.88 4.21,-19.6 0.49,-5.98 0.74,-11.96 0.86,-17.96 0.18,-8.95 0.3,-17.9 0.6,-26.85 0.31,-9.18 0.77,-18.36 1.68,-27.51 0.4,-3.97 0.81,-7.95 1.15,-11.93 0.37,-4.3 -0.33,-8.44 -2,-12.42 -1.83,-4.37 -4.97,-7.57 -8.93,-10.03 -0.47,-0.29 -1.03,-0.43 -1.54,-0.64 -5.63,-2.31 -11.06,-5 -16.23,-8.21 -3.61,-2.24 -7,-4.76 -10.13,-7.64 -7.39,-6.82 -12.06,-15.22 -14.41,-24.94 -1.06,-4.36 -1.7,-8.78 -2.05,-13.25 -0.7,-9.02 -0.53,-18.05 -0.1,-27.07 0.17,-3.59 0.34,-7.18 0.55,-10.77 0.51,-8.53 0.91,-17.08 1.61,-25.6 0.89,-10.86 2.75,-21.55 6.62,-31.8 1.55,-4.12 3.45,-8.08 5.87,-11.77 1.58,-2.41 3.36,-4.66 5.43,-6.69 3.07,-3.01 6.56,-5.34 10.66,-6.7 1.34,-0.45 1.37,-0.48 1.05,-1.87 -0.67,-2.96 -1.22,-5.94 -1.64,-8.95 -0.01,-0.08 -0.04,-0.16 -0.05,-0.24 -0.17,-1.34 -0.33,-2.69 -0.49,-4.03 -1.07,-0.89 -1.59,-2.18 -2.34,-3.3 -4.38,-6.62 -9.41,-12.72 -14.84,-18.48 -12.59,-13.34 -26.94,-24.48 -42.55,-34.05 -0.96,-0.59 -1.85,-0.67 -2.93,-0.47 -3.62,0.67 -7.27,1.07 -10.95,1.12 -1.45,0.02 -2.88,-0.13 -4.29,-0.4 -0.85,-0.17 -1.71,-0.44 -2.49,-0.82 -1.48,-0.73 -2.26,-1.92 -2.28,-3.64 -0.02,-1.7 0.24,-3.35 0.66,-4.97 0.26,-1.02 0.04,-1.73 -0.84,-2.23 -2.57,-1.47 -5.21,-2.76 -8.16,-3.35 -1.72,-0.34 -3.35,-0.16 -4.88,0.67 -2.41,1.31 -4.94,2.22 -7.7,2.49 -0.62,0.06 -1.22,0.35 -1.81,0.58 -1.42,0.57 -2.89,0.9 -4.43,0.91 -1.65,0.01 -3.15,-0.42 -4.45,-1.48 -0.55,-0.45 -1.14,-0.88 -1.77,-1.22 -0.85,-0.47 -1.5,-0.29 -2.09,0.48 -0.49,0.64 -0.82,1.37 -1.03,2.15 -0.31,1.16 -0.57,2.33 -0.89,3.48 -0.28,1 -0.54,2.02 -0.97,2.95 -1.01,2.2 -2.68,2.85 -4.91,1.91 -0.87,-0.37 -1.7,-0.89 -2.47,-1.45 -1.81,-1.32 -3.52,-2.77 -5.09,-4.36 -1.41,-1.42 -2.76,-2.89 -4.17,-4.31 -0.79,-0.79 -1.6,-1.56 -2.45,-2.29 -1.27,-1.09 -2.74,-1.19 -4.29,-0.69 -0.38,0.12 -0.74,0.3 -1.1,0.47 -6.1,2.92 -12.59,4.02 -19.29,4.15 -1.85,0.04 -3.67,-0.18 -5.39,-0.91 -0.92,-0.39 -1.86,-0.39 -2.82,-0.22 -2.67,0.48 -5.34,0.99 -8.02,1.41 -1.34,0.21 -2.7,0.3 -4.05,0.38 -0.63,0.04 -1.28,-0.02 -1.91,-0.13 -2.19,-0.42 -3.21,-2 -2.8,-4.21 0.27,-1.45 0.97,-2.7 1.69,-3.94 1.83,-3.13 3.2,-6.43 3.82,-10.02 0.05,-0.31 0.17,-0.62 0.23,-0.93 0.32,-1.67 1.29,-2.67 2.96,-3.05 2.96,-0.68 5.88,-1.5 8.85,-2.1 4.94,-1 9.9,-1.78 14.97,-1.71 2.5,0.03 4.94,0.32 7.27,1.27 0.52,0.21 1.06,0.35 1.6,0.5 1.17,0.32 2.1,0.22 2.87,-0.97 0.83,-1.29 1.55,-1.38 2.81,-0.52 1.85,1.27 3.95,1.01 5.99,1.15 0.43,0.03 0.72,-0.29 1.03,-0.54 1.63,-1.33 3.49,-1.9 5.59,-1.55 0.85,0.14 1.54,-0.03 2.2,-0.62 0.73,-0.66 1.66,-0.94 2.65,-0.97 2.32,-0.08 4.63,-0.16 6.95,-0.24 1.56,-0.05 3.01,0.19 4.17,1.4 0.38,0.4 0.91,0.64 1.38,0.95 0.67,0.45 1.31,0.98 1.58,1.76 0.42,1.27 1.41,1.69 2.57,1.81 1.75,0.19 3.5,0.29 5.25,0.46 2.47,0.23 4.93,0.51 7.39,0.71 1.64,0.13 2.91,0.83 3.71,2.27 0.54,0.98 1.33,1.53 2.42,1.77 2.22,0.51 3.91,1.8 5.01,3.78 0.84,1.51 2.05,2.64 3.41,3.65 2.19,1.64 4.56,2.96 7.05,4.05 1.71,0.75 3.21,1.71 4.62,2.93 2.29,1.99 1.4,1.78 4.91,1.83 1.42,0.02 2.86,0.14 4.22,-0.26 0.2,-0.66 -0.3,-0.75 -0.57,-0.94 -4.02,-2.9 -8.05,-5.78 -12.07,-8.67 -0.85,-0.61 -1.64,-1.28 -2.27,-2.11 -1.28,-1.71 -1.26,-3.44 0.2,-4.99 0.76,-0.81 1.67,-1.48 2.57,-2.14 1.61,-1.19 3.14,-2.43 4.28,-4.13 1.22,-1.82 3.17,-2.33 5.24,-2.4 1.04,-0.03 2.07,0.08 3.11,0.12 0.79,0.03 1.32,-0.16 1.57,-1.07 0.42,-1.5 1.61,-2.1 3.11,-2.13 1.28,-0.03 2.55,0.11 3.81,0.38 1.65,0.35 3.31,0.57 4.98,0.11 0.29,-0.08 0.56,-0.25 0.81,-0.36 -0.05,-0.59 -0.49,-0.68 -0.81,-0.85 -6.02,-3.15 -12.03,-6.29 -18.36,-8.8 -1.78,-0.71 -3.48,-1.6 -5.1,-2.64 -2.35,-1.52 -3.86,-3.55 -4.07,-6.42 -0.12,-1.67 -0.3,-3.34 -0.43,-5.01 -0.09,-1.15 0.29,-2.16 0.78,-3.2 1.23,-2.61 3.21,-4.32 5.81,-5.42 1.3,-0.55 2.58,-1.17 4.15,-1.88 -1.01,-0.58 -1.81,-0.74 -2.63,-0.89 -1.18,-0.22 -2.37,-0.39 -3.51,-0.75 -2.24,-0.71 -2.82,-2.24 -1.62,-4.26 0.53,-0.89 1.17,-1.71 1.82,-2.52 1.87,-2.33 3.34,-4.85 3.97,-7.83 0.37,-1.72 0.97,-3.4 2.59,-4.44 0.83,-2.06 2.72,-3.07 4.31,-4.38 1.34,-1.11 2.33,-2.41 2.5,-4.21 0.02,-0.24 0.07,-0.48 0.14,-0.7 0.42,-1.3 1.38,-1.93 2.77,-1.7 0.77,0.13 1.51,0.41 2.24,0.62 0.13,-0.16 0.29,-0.26 0.31,-0.38 0.7,-3.58 3.23,-5.15 6.5,-5.84 0.85,-0.18 1.76,-0.22 2.62,-0.11 1.76,0.23 3.1,-0.49 4.32,-1.62 1.56,-1.45 2.55,-3.26 3.22,-5.26 0.23,-0.68 0.38,-1.39 0.67,-2.05 0.43,-0.98 1.39,-1.15 2.13,-0.42 0.23,0.22 0.39,0.5 0.59,0.75 0.74,0.93 1.74,1.37 2.88,1.55 1.11,0.17 2.22,0.2 3.35,0.12 1.04,-0.07 2.08,-0.15 3.11,-0.12 3.45,0.1 5.47,1.7 6.41,5.05 0.26,0.92 0.43,1.87 0.62,2.81 0.37,1.77 1.13,3.24 2.61,4.42 2.6,2.06 3.77,4.86 3.73,8.2 -0.03,2.19 -0.42,4.29 -1.11,6.35 -0.61,1.82 -1.3,3.6 -1.99,5.39 -0.78,2.01 -1.51,4.04 -2.03,6.14 -0.21,0.86 -0.32,1.73 -0.24,2.61 0.05,0.54 0.43,0.9 0.96,0.84 0.55,-0.06 1.1,-0.18 1.63,-0.32 0.54,-0.14 1.06,-0.36 1.61,-0.47 1.87,-0.4 3.35,0.46 3.89,2.28 0.39,1.32 0.42,2.67 0.28,4.04 -0.25,2.63 -0.73,5.22 -1.23,7.81 -0.62,3.21 -1.21,6.44 -1.89,9.64 -0.28,1.32 -0.73,2.61 -1.17,3.89 -0.21,0.6 -0.53,1.17 -0.89,1.69 -1.09,1.56 -2.26,1.95 -4.17,1.47 -1.49,-0.37 -1.51,-0.39 -2.2,0.88 -0.92,1.69 -1.63,3.47 -2.27,5.28 -0.16,0.45 -0.32,0.9 -0.48,1.35 -0.68,1.77 -0.68,1.77 -2.61,1.72 z"
   id="path10"
   style="fill-opacity:1;fill-rule:nonzero" />
		<path
   class="st0"
   d="m 373.92,62.96 c 1.71,-0.31 2.77,-1.39 3.67,-2.62 1.43,-1.92 2.78,-3.9 4.16,-5.86 1.15,-1.63 2.28,-3.28 3.45,-4.89 1.34,-1.83 3.06,-2.94 5.43,-3.05 2.02,-0.09 3.87,-0.91 5.65,-1.85 2.55,-1.36 4.9,-3.01 7.14,-4.82 1.24,-1.01 2.47,-2.02 3.74,-2.99 1.56,-1.19 3.29,-1.91 5.3,-1.92 1.88,-0.01 3.6,-0.68 5.19,-1.65 0.89,-0.54 1.75,-1.12 2.65,-1.64 1.21,-0.7 2.5,-1.09 3.9,-0.79 2.21,0.47 4.45,0.37 6.69,0.3 2.48,-0.08 4.95,-0.23 7.42,0.01 1.27,0.12 2.54,0.32 3.78,0.59 1.38,0.3 2.51,1.02 3.1,2.39 0.16,0.36 0.37,0.71 0.56,1.06 0.94,1.78 2.4,2.96 4.26,3.66 0.52,0.19 1.06,0.36 1.6,0.48 2.95,0.64 5.57,1.92 7.87,3.87 0.61,0.51 1.27,0.97 1.94,1.39 1.03,0.65 2.16,1.03 3.4,1.01 0.4,0 0.8,-0.02 1.2,0.01 1.42,0.11 1.96,0.67 2.05,2.13 0.05,0.96 -0.06,1.9 -0.29,2.85 -0.61,2.5 -1.56,4.87 -2.78,7.12 -2.05,3.8 -3.75,7.76 -5.28,11.79 -0.51,1.34 -1.13,2.64 -1.78,3.92 -0.84,1.65 -2.14,2.74 -3.99,3.17 -1.24,0.29 -2.47,0.66 -3.69,1.01 -3.57,1.02 -5.77,3.3 -6.32,7.02 -0.58,3.89 -2.7,6.75 -5.84,8.97 -1.76,1.25 -3.6,2.38 -5.52,3.36 -2.98,1.51 -5.45,3.59 -7.51,6.21 -0.59,0.75 -1.23,1.47 -1.87,2.18 -1.31,1.45 -2.87,2.57 -4.71,3.21 -3.62,1.27 -7.11,2.86 -10.64,4.34 -2.76,1.16 -5.62,1.82 -8.63,1.63 -0.8,-0.05 -1.59,-0.14 -2.38,-0.26 -3.35,-0.49 -6.15,0.47 -8.35,3.08 -0.51,0.61 -1.04,1.21 -1.55,1.83 -1.25,1.49 -2.88,2.32 -4.78,2.44 -3.59,0.22 -7.18,0.34 -10.77,0.48 -0.62,0.02 -0.82,-0.38 -0.5,-0.92 0.12,-0.21 0.26,-0.4 0.4,-0.6 5.89,-8.36 11.94,-16.6 18.65,-24.34 2.51,-2.9 5.05,-5.77 7.4,-8.8 4.45,-5.75 8.87,-11.52 13.32,-17.26 0.45,-0.58 0.65,-1.04 0.01,-1.62 -0.37,-0.33 -0.2,-0.72 0.11,-1.04 0.66,-0.7 1.32,-1.39 1.97,-2.1 0.21,-0.23 0.46,-0.46 0.4,-0.82 -0.06,-0.34 -1.01,-1.27 -1.34,-1.28 -0.14,-0.01 -0.32,0.04 -0.42,0.13 -0.35,0.32 -0.69,0.66 -1.02,1.01 -4.91,5.25 -9.74,10.58 -14.35,16.1 -2.05,2.46 -4.01,4.97 -5.8,7.62 -1.66,2.45 -3.52,4.75 -5.51,6.94 -7.52,8.28 -15.04,16.56 -22.56,24.84 -0.16,0.18 -0.32,0.35 -0.48,0.53 -0.31,0.36 -0.7,0.4 -1.07,0.18 -0.78,-0.46 -1.51,-0.84 -2.34,-0.03 -0.15,0.15 -0.63,0.09 -0.9,-0.02 -2.15,-0.88 -4.34,-1.6 -6.58,-2.21 -0.92,-0.25 -1.48,-0.9 -1.77,-1.8 -0.2,-0.61 -0.39,-1.22 -0.58,-1.82 -0.44,-1.38 -1.03,-2.68 -1.93,-3.83 -2.52,-3.2 -3.11,-6.93 -2.91,-10.85 0.1,-1.84 0.5,-3.63 0.94,-5.42 0.39,-1.57 0.46,-3.14 -0.07,-4.72 -0.26,-0.77 -0.13,-0.97 0.66,-1.19 3,-0.84 6,-1.67 9,-2.49 2.93,-0.79 5.88,-1.52 8.68,-2.72 1.17,-0.5 2.34,-1.02 3.45,-1.65 4.83,-2.74 7.42,-6.88 7.62,-12.47 0.05,-1.52 0.03,-3.04 0.04,-4.55 0.01,-0.62 0.01,-1.25 0.01,-1.97 z"
   id="path12"
   style="fill-opacity:1;fill-rule:nonzero" />
		<path
   class="st0"
   d="m 260.72,124.37 c -0.68,-0.42 -1.41,-0.47 -2.11,-0.5 -1.72,-0.09 -3.28,-0.66 -4.78,-1.43 -1.64,-0.83 -3.27,-1.66 -4.9,-2.52 -4.03,-2.12 -8.15,-4.06 -12.36,-5.81 -1.69,-0.7 -3.35,-1.5 -4.98,-2.34 -0.91,-0.47 -1.77,-1.08 -2.58,-1.72 -0.97,-0.77 -1.58,-1.8 -1.74,-3.05 -0.16,-1.27 -0.23,-2.55 -0.47,-3.8 -0.41,-2.14 0.42,-3.9 1.52,-5.6 0.45,-0.69 1.13,-1.12 1.81,-1.55 1.56,-0.99 3.26,-1.69 4.98,-2.35 0.89,-0.34 1.81,-0.63 2.71,-0.96 1.11,-0.4 1.42,-1.2 0.87,-2.19 -0.41,-0.73 -1.08,-1.17 -1.8,-1.52 -1.3,-0.64 -2.68,-1.02 -4.1,-1.28 -1.02,-0.19 -2.04,-0.4 -3.04,-0.64 -0.36,-0.09 -0.5,-0.45 -0.34,-0.75 0.31,-0.55 0.69,-1.07 1.07,-1.58 0.67,-0.9 1.39,-1.76 2.02,-2.68 1.19,-1.72 2.14,-3.55 2.61,-5.61 0.19,-0.85 0.5,-1.68 0.78,-2.51 0.23,-0.7 0.58,-1.3 1.32,-1.61 0.55,-0.22 0.95,-0.66 1.04,-1.24 0.14,-0.89 0.77,-1.37 1.39,-1.86 0.56,-0.45 1.15,-0.86 1.71,-1.32 1.71,-1.39 3.07,-3.01 3.43,-5.3 0.13,-0.81 0.46,-0.94 1.17,-0.68 0.6,0.23 1.17,0.54 1.77,0.72 1.53,0.46 2.51,-0.21 2.69,-1.76 0.03,-0.24 0.02,-0.48 0.01,-0.72 -0.02,-1.44 0.76,-2.39 1.89,-3.13 1.32,-0.85 2.79,-1.29 4.33,-1.1 3.33,0.41 5.68,-1.16 7.65,-3.57 1.12,-1.37 1.89,-2.95 2.48,-4.53 0.26,-0.06 0.45,-0.18 0.55,-0.12 2.15,1.31 4.52,1.48 6.95,1.33 0.96,-0.06 1.92,-0.14 2.87,-0.12 2.53,0.06 3.64,0.92 4.31,3.33 0.26,0.92 0.41,1.87 0.62,2.81 0.49,2.16 1.4,4.03 3.23,5.43 2.19,1.67 3.1,3.96 3.02,6.71 -0.06,2.27 -0.61,4.43 -1.37,6.54 -0.73,2.03 -1.53,4.03 -2.29,6.05 -0.63,1.64 -1.13,3.32 -1.52,5.04 -0.21,0.95 -0.28,1.9 -0.2,2.86 0.17,2.05 1.44,3.15 3.52,3.06 0.8,-0.03 1.58,-0.2 2.33,-0.51 0.37,-0.15 0.76,-0.26 1.15,-0.35 0.63,-0.14 1.04,0.14 1.24,0.8 0.3,1.02 0.25,2.05 0.15,3.09 -0.25,2.55 -0.73,5.06 -1.22,7.57 -0.62,3.21 -1.23,6.43 -1.88,9.64 -0.27,1.33 -0.64,2.64 -1.27,3.86 -0.7,1.33 -1.07,1.46 -2.45,0.89 -0.15,-0.06 -0.29,-0.14 -0.43,-0.22 -0.91,-0.5 -1.7,-0.23 -2.42,0.4 -0.79,0.7 -1.3,1.61 -1.78,2.53 -1.07,2.06 -1.86,4.24 -2.66,6.41 -0.19,0.52 -0.27,1.09 -0.85,1.49 -0.78,-2.12 -1.17,-4.3 -1.58,-6.47 -0.33,-1.72 -0.51,-3.47 -0.73,-5.22 -0.68,-5.39 -1.84,-10.7 -2.87,-16.03 -1.22,-6.35 -2.44,-12.71 -2.95,-19.17 -0.27,-3.51 -0.31,-7.03 -0.3,-10.54 0,-0.64 0.01,-1.28 0,-1.92 0,-0.58 -0.31,-0.88 -0.88,-0.88 -0.73,0 -0.98,-0.4 -0.94,-1.06 0.08,-1.12 0.15,-2.23 0.24,-3.35 0.08,-0.96 0.18,-1.91 0.28,-2.86 0.14,-1.34 -0.24,-1.4 -1.55,-1.43 -0.45,-0.01 -0.73,0.26 -0.78,0.73 -0.14,1.35 -0.31,2.7 -0.42,4.05 -0.6,7.41 -1.08,14.84 -0.53,22.27 0.45,6.13 1.08,12.25 1.64,18.38 0.12,1.35 0.29,2.7 0.4,4.05 0.53,6.55 2.23,12.9 3.37,19.35 1.11,6.29 2.16,12.59 3.03,18.93 0.04,0.31 0.01,0.62 0.01,0.93 -0.63,0.25 -0.85,-0.32 -1.22,-0.52 -1.54,-0.82 -2.7,-0.59 -3.76,0.81 -0.78,1.04 -1.21,2.24 -1.62,3.46 -0.28,0.83 -0.52,1.68 -0.81,2.51 -0.54,1.53 -1.68,2.29 -3.24,2.44 -1.04,0.1 -2.06,0.01 -3.1,-0.19 -2.2,-0.43 -4.3,-1.2 -6.45,-1.82 -1.07,-0.31 -2.15,-0.62 -3.25,-0.81 -1.12,-0.19 -2.25,-0.15 -3.14,0.75 -0.54,0.55 -1.18,0.45 -1.78,0.21 -0.81,-0.33 -1.64,-0.67 -2.37,-1.13 -1.76,-1.1 -3.5,-2.24 -5.19,-3.44 -2.87,-2.03 -5.69,-4.13 -8.54,-6.2 -0.84,-0.61 -1.67,-1.24 -2.24,-2.14 -0.29,-0.45 -0.29,-0.94 0.06,-1.34 0.41,-0.48 0.88,-0.93 1.37,-1.33 0.68,-0.55 1.41,-1.05 2.12,-1.57 1.3,-0.95 2.52,-1.98 3.37,-3.37 0.74,-1.21 1.85,-1.73 3.18,-1.85 0.79,-0.07 1.59,-0.01 2.39,0.01 0.64,0.01 1.28,0.08 1.91,0.05 1.48,-0.07 2.68,-0.62 3.03,-2.2 0.18,-0.82 0.67,-1.04 1.37,-0.98 0.95,0.08 1.92,0.12 2.85,0.34 3.07,0.73 6.04,0.42 8.91,-0.82 1.54,-0.67 3.04,-1.41 4.55,-2.15 0.21,-0.1 0.34,-0.33 0.51,-0.51 z"
   id="path14"
   style="fill-opacity:1;fill-rule:nonzero" />
		<path
   class="st0"
   d="m 313.14,363.44 c -2.11,2.07 -4.25,4.11 -6.31,6.23 -3.74,3.85 -7.15,7.97 -10.01,12.52 -2.39,3.81 -4.4,7.78 -5.32,12.24 -0.17,0.84 -0.48,0.95 -1.13,0.45 -2.34,-1.82 -4.46,-3.88 -6.43,-6.1 -5.08,-5.75 -8.28,-12.47 -10.07,-19.89 -1.07,-4.44 -1.69,-8.94 -2.03,-13.49 -0.66,-8.86 -0.53,-17.72 -0.08,-26.59 0.19,-3.67 0.34,-7.34 0.56,-11.01 0.51,-8.45 0.91,-16.91 1.61,-25.35 0.8,-9.73 2.46,-19.33 5.65,-28.6 0.26,-0.75 0.54,-1.5 0.83,-2.24 0.08,-0.22 0.22,-0.41 0.33,-0.61 0.35,0.11 0.54,0.35 0.68,0.65 3.75,7.77 9.53,13.74 16.56,18.56 4.48,3.07 9.05,6 13.6,8.98 1.4,0.92 2.85,1.77 4.26,2.67 0.32,0.2 0.76,0.31 0.78,0.9 -0.39,0.39 -1,0.17 -1.48,0.37 -0.43,0.18 -0.86,0.33 -1.3,0.49 -0.71,-2.35 -0.84,-2.55 -2.95,-3.9 -1.54,-1 -3.12,-1.93 -4.66,-2.93 -0.82,-0.53 -1.64,-0.55 -2.51,-0.2 -0.83,0.34 -1.52,0.89 -2.11,1.55 -4.53,5.06 -8.91,10.25 -12.57,16 -1.3,2.04 -2.13,4.29 -2.8,6.59 -1.74,5.96 -2.58,12.01 -1.93,18.23 0.27,2.56 0.85,5.03 1.77,7.43 4.12,10.79 11.05,19.33 20.53,25.87 1.91,1.32 3.88,1.82 6.07,0.79 0.45,-0.2 0.5,0.04 0.46,0.39 z"
   id="path16"
   style="fill-opacity:1;fill-rule:nonzero" />
		<path
   class="st0"
   d="m 310.45,208.59 c -0.33,-0.41 -0.48,-0.52 -0.52,-0.65 -2.68,-8.36 -5.37,-16.71 -7.08,-25.35 -1.53,-7.77 -1.8,-15.53 -1.01,-23.37 0.53,-5.24 1.15,-10.48 1.76,-15.71 0.2,-1.74 0.49,-3.48 0.72,-5.22 0.1,-0.73 0.46,-1.08 1.2,-1.26 3.52,-0.83 7.06,-1.32 10.69,-0.94 1.11,0.11 2.23,0.23 3.34,0.29 1.57,0.09 3.02,-0.31 4.24,-1.33 1.42,-1.18 2.98,-2.14 4.62,-2.98 1.78,-0.91 3.06,-2.28 3.71,-4.2 0.65,-1.92 1.68,-3.61 3.09,-5.08 2.24,-2.34 3.34,-5.2 3.9,-8.33 0.68,-3.83 0.42,-7.64 -0.25,-11.44 -0.5,-2.84 -1.34,-5.59 -2.39,-8.27 -0.5,-1.27 -0.93,-2.55 -0.91,-3.94 0.01,-0.94 0.19,-1.16 1.18,-1.48 0.15,-0.05 0.4,0.02 0.46,-0.06 0.79,-1.13 1.8,-0.63 2.75,-0.37 1.38,0.37 2.32,1.45 2.46,2.84 0.11,1.04 -0.07,2.06 -0.33,3.08 -0.8,3.2 -1.19,6.43 -0.7,9.73 0.4,2.74 1.23,5.29 2.92,7.5 0.94,1.23 1.62,2.55 2.01,4.05 0.1,0.39 0.24,0.76 0.36,1.14 0.58,1.92 1.85,3.17 3.77,3.65 1.94,0.49 3.82,1.15 5.67,1.89 0.89,0.36 1.82,0.59 2.73,0.43 0.28,0.45 0.05,0.7 -0.13,0.93 -7.78,9.98 -14.35,20.75 -20.65,31.7 -9.45,16.41 -18.1,33.24 -26.34,50.27 -0.39,0.78 -0.8,1.55 -1.27,2.48 z"
   id="path18"
   style="fill-opacity:1;fill-rule:nonzero" />
		<path
   class="st0"
   d="m 287.83,247.93 c 0.36,1.27 0.59,2.11 0.82,2.94 0.79,2.86 1.88,5.6 3.29,8.21 2.15,4 4.96,7.42 8.64,10.12 2.25,1.66 4.47,3.36 6.76,4.96 0.84,0.59 1.34,1.25 1.63,2.24 0.46,1.61 1.21,3.12 2.14,4.53 1.99,3.04 4.69,5.18 8.06,6.52 1.6,0.64 3.22,0.89 4.92,0.63 1.11,-0.16 2.23,-0.23 3.32,-0.47 0.88,-0.19 1.53,0.08 2.21,0.59 5.4,4.04 10.33,8.55 14.37,13.99 1.57,2.12 2.99,4.34 4.11,6.74 0.81,1.72 1.48,3.45 1.63,5.44 0.18,2.21 0.75,4.39 1,6.62 0.99,8.87 -0.76,17.16 -5.21,24.88 -2.33,4.04 -5.21,7.65 -8.45,10.99 -3.85,3.97 -8.08,7.5 -12.54,10.75 -4.47,3.26 -8.66,6.82 -12.35,10.95 -3.37,3.77 -6.25,7.87 -8.32,12.52 -1.4,3.16 -2.37,6.44 -2.69,9.89 -0.02,0.23 -0.1,0.45 -0.16,0.71 -0.26,-0.05 -0.52,-0.04 -0.7,-0.15 -1.97,-1.21 -3.93,-2.45 -5.91,-3.65 -0.73,-0.45 -0.9,-1.06 -0.77,-1.83 0.34,-1.97 0.87,-3.89 1.62,-5.75 1.33,-3.27 3.11,-6.3 5.13,-9.18 3.68,-5.26 8.03,-9.94 12.73,-14.29 2.22,-2.06 4.53,-4.05 6.83,-6.02 3.83,-3.27 7.58,-6.63 11.08,-10.24 2.45,-2.53 4.75,-5.18 6.78,-8.06 1.89,-2.69 3.47,-5.55 4.45,-8.71 0.98,-3.17 1.3,-6.43 0.96,-9.71 -0.31,-2.94 -0.76,-5.86 -1.21,-8.78 -0.25,-1.6 -0.97,-3.04 -1.74,-4.44 -1.51,-2.75 -3.48,-5.16 -5.65,-7.41 -3.74,-3.86 -7.91,-7.21 -12.34,-10.23 -2.96,-2.02 -5.99,-3.96 -9.04,-5.86 -4.82,-3 -9.53,-6.14 -14.21,-9.35 -4.64,-3.19 -8.7,-7.02 -12,-11.61 -1.73,-2.41 -3.17,-4.97 -4.28,-7.73 -0.43,-1.06 -0.37,-1.95 0.16,-2.96 1.19,-2.27 2.43,-4.5 3.91,-6.59 0.23,-0.31 0.5,-0.59 1.02,-1.2 z"
   id="path20"
   style="fill-opacity:1;fill-rule:nonzero" />
		<path
   class="st0"
   d="m 204.18,147.43 c -1.3,0.63 -2.56,1.26 -3.83,1.85 -0.65,0.3 -1.32,0.61 -2.01,0.77 -2.47,0.59 -4.96,1.07 -7.39,1.89 -1.88,0.64 -3.79,0.36 -5.34,-1.17 -0.57,-0.56 -1.28,-0.95 -2.03,-1.24 -1.7,-0.65 -3.12,-0.33 -4.35,0.99 -0.84,0.9 -1.34,2 -1.68,3.15 -0.41,1.38 -0.7,2.79 -1.06,4.18 -0.22,0.85 -0.43,1.71 -0.93,2.45 -0.29,0.45 -0.7,0.61 -1.23,0.47 -0.79,-0.2 -1.45,-0.67 -2.1,-1.12 -1.91,-1.33 -3.65,-2.86 -5.28,-4.51 -1.57,-1.59 -3.09,-3.24 -4.67,-4.82 -0.73,-0.73 -1.51,-1.44 -2.34,-2.04 -1.89,-1.36 -3.98,-1.54 -6.16,-0.77 -0.45,0.16 -0.89,0.36 -1.32,0.56 -5.66,2.68 -11.68,3.73 -17.89,3.92 -1.77,0.05 -3.5,-0.13 -5.16,-0.85 -1.05,-0.46 -2.17,-0.51 -3.3,-0.32 -2.76,0.47 -5.51,0.97 -8.26,1.42 -1.1,0.18 -2.21,0.31 -3.33,0.4 -0.63,0.05 -1.28,0 -1.91,-0.07 -0.92,-0.11 -1.25,-0.62 -1.06,-1.49 0.19,-0.87 0.55,-1.67 1.01,-2.42 2.2,-3.66 3.84,-7.54 4.56,-11.77 0.05,-0.31 0.17,-0.62 0.29,-0.91 0.17,-0.42 0.51,-0.61 0.96,-0.51 0.86,0.2 1.73,0.35 2.55,0.64 5.64,1.97 11.3,1.82 16.98,0.25 1.39,-0.38 2.78,-0.74 4.15,-1.16 1.92,-0.59 3.84,-0.98 5.86,-1.13 2.78,-0.2 5.55,-0.69 8.32,-1.02 3.11,-0.37 6.22,-0.45 9.26,0.5 1.28,0.4 2.37,0.16 3.26,-0.85 0.81,-0.92 1.85,-1.2 3.01,-1.2 0.48,0 0.97,-0.03 1.44,0.05 3.18,0.53 6.37,0.42 9.57,0.24 0.16,-0.01 0.32,-0.01 0.48,-0.03 1.64,-0.22 2.72,0.33 3.3,2 0.59,1.67 1.98,2.67 3.55,3.39 1.76,0.81 3.62,1.23 5.53,1.48 3.33,0.44 6.67,0.71 10.03,0.87 1.12,0.05 2.23,0.15 3.3,0.51 1.02,0.34 1.96,0.84 2.52,1.73 1.09,1.75 2.38,3.33 3.91,4.82 -0.84,0.27 -1.35,-0.22 -1.9,-0.47 -3.65,-1.61 -7.29,-3.26 -10.94,-4.88 -0.8,-0.36 -1.61,-0.7 -2.43,-1.02 -0.76,-0.3 -0.96,-0.22 -1.33,0.49 -0.15,0.28 -0.22,0.6 -0.37,0.88 -0.16,0.3 -0.44,0.47 -0.79,0.36 -0.61,-0.2 -1.2,-0.43 -1.81,-0.64 -2.86,-1.01 -5.72,-2.03 -8.59,-3.02 -1.05,-0.36 -1.83,0.34 -1.69,1.5 0.02,0.2 0.21,0.48 0.39,0.56 0.58,0.26 1.2,0.45 1.8,0.65 4.85,1.63 9.64,3.39 14.38,5.31 0.71,0.29 1.57,0.38 2.07,1.15 z"
   id="path22"
   style="fill-opacity:1;fill-rule:nonzero" />
		<path
   class="st0"
   d="m 377.06,108.48 c -1.59,2.2 -3.23,4.37 -4.77,6.6 -6.5,9.4 -12.98,18.81 -19.46,28.22 -1.86,2.7 -3.68,5.42 -5.54,8.12 -8.07,11.65 -14.98,23.98 -21.17,36.71 -2.48,5.1 -4.95,10.21 -7.41,15.31 -1.78,3.69 -3.17,7.51 -3.85,11.55 -0.2,1.18 -0.27,2.38 -0.39,3.57 -0.04,0.4 -0.05,0.81 -0.46,1.03 -0.35,0.19 -0.82,0.34 -0.77,0.79 0.04,0.37 0.31,0.72 0.51,1.07 0.27,0.5 0.72,0.55 1.23,0.46 2.33,-0.39 4.21,0.54 5.91,2.01 0.18,0.16 0.36,0.32 0.52,0.49 2.93,3.07 5.28,6.56 7.58,10.2 -0.62,0.29 -0.81,-0.15 -1.04,-0.36 -2,-1.84 -4.07,-3.61 -6.27,-5.21 -1.82,-1.33 -3.78,-2.41 -5.98,-2.94 -2.57,-0.63 -5.08,-0.46 -7.44,0.83 -0.99,0.54 -1.87,1.23 -2.61,2.08 -0.4,0.46 -0.32,0.79 0.24,1.14 1.07,0.66 1.1,0.69 2.24,-0.25 1.85,-1.52 3.96,-1.98 6.29,-1.62 0.85,0.13 1.07,0.41 1.13,1.26 0.13,2.03 -0.69,3.54 -2.43,4.6 -0.64,0.39 -0.86,1.97 -0.38,2.55 0.17,0.21 0.55,0.29 0.85,0.34 2.67,0.42 4.47,1.97 5.63,4.28 -0.04,0.44 -0.32,0.6 -0.61,0.69 -2.58,0.82 -4.32,2.64 -5.73,4.85 -0.21,0.34 -0.42,0.68 -0.61,1.03 -0.42,0.77 -0.83,1.54 -1.24,2.31 -1.02,0.15 -2.04,0.36 -3.07,0.44 -4.06,0.33 -8.13,0.59 -12.19,0.93 -2.19,0.18 -2.18,0.22 -3.69,1.81 -1.09,-2.38 -1.66,-4.85 -2.07,-7.37 -0.12,-0.73 0.27,-1.2 0.74,-1.67 3.47,-3.44 7.39,-6.08 12.3,-6.99 1.04,-0.19 1.18,-0.42 1.06,-1.45 -0.05,-0.39 -0.12,-0.79 -0.23,-1.17 -1.47,-5.34 -2.33,-10.78 -2.57,-16.3 -0.21,-4.97 -0.95,-9.86 -1.83,-14.73 -1.23,-6.84 -2.62,-13.65 -3.42,-20.56 -0.51,-4.36 -0.85,-8.75 -1.04,-13.14 -0.33,-7.43 -0.23,-14.86 0.44,-22.28 0.91,-10.06 2.65,-19.95 6.08,-29.49 0.05,-0.15 0.11,-0.3 0.15,-0.46 0.42,-1.83 1.43,-3 3.48,-3 0.51,0.31 0.28,0.82 0.21,1.25 -0.99,6.23 -2.02,12.46 -2.99,18.69 -0.9,5.76 -1.63,11.55 -2.26,17.34 -0.48,4.37 -0.8,8.75 -1.09,13.14 -0.32,4.9 0.09,9.74 0.89,14.56 1.3,7.82 3.27,15.46 5.81,22.97 1.46,4.31 2.84,8.65 3.79,13.11 0.23,1.09 0.45,2.19 0.59,3.3 0.13,1.03 0.19,2.06 -0.11,3.09 -0.13,0.45 -0.19,0.94 -0.18,1.41 0.01,0.43 -0.18,1.04 0.47,1.18 0.51,0.11 0.9,-0.25 1.24,-0.59 0.66,-0.65 0.89,-1.51 1,-2.39 0.14,-1.03 0.13,-2.08 -0.07,-3.1 -0.39,-1.96 -0.79,-3.91 -1.19,-5.87 -0.12,-0.56 -0.11,-1.01 0.36,-1.51 0.48,-0.5 0.74,-1.22 1.05,-1.86 8.56,-17.78 17.54,-35.34 27.38,-52.46 5.14,-8.94 10.5,-17.74 16.5,-26.13 2.7,-3.77 5.56,-7.42 8.69,-10.84 3.72,-4.07 7.43,-8.15 11.14,-12.23 0.52,-0.04 0.74,0.16 0.66,0.66 z"
   id="path24"
   style="fill-opacity:1;fill-rule:nonzero" />
		<path
   class="st0"
   d="m 310.91,70.39 c -0.25,-1.16 0.33,-1.8 1.09,-2.31 1,-0.68 2.15,-1.05 3.31,-1.33 2.49,-0.6 5.01,-1 7.57,-1.05 0.82,-0.02 1.52,-0.15 2.15,-0.79 3.44,-3.48 7.67,-5.67 12.2,-7.34 4.52,-1.66 9.19,-2.66 13.95,-3.28 5.71,-0.74 11.45,-0.96 17.2,-0.72 0.48,0.02 0.96,0.07 1.43,0.06 0.69,-0.01 1.02,0.35 1.11,0.98 0.08,0.55 0.17,1.1 0.21,1.66 0.25,4.06 0.37,8.13 0.38,12.2 0.01,5.63 -2.53,9.56 -7.55,12 -2.6,1.26 -5.33,2.13 -8.1,2.9 -3.53,0.98 -7.09,1.89 -10.6,2.94 -3.26,0.97 -6.14,0.33 -8.78,-1.71 -1.4,-1.08 -2.58,-2.37 -3.69,-3.74 -0.8,-0.99 -1.59,-2 -2.42,-2.97 -0.41,-0.48 -0.88,-0.94 -1.4,-1.3 -1.15,-0.81 -2.55,-0.59 -3.4,0.52 -0.43,0.56 -0.75,1.21 -1.13,1.84 -1.79,-0.75 -3.11,-2.04 -4.48,-3.25 -1.2,-1.06 -2.33,-2.18 -3.54,-3.22 -1.56,-1.35 -3.24,-2.55 -5.51,-2.09 z"
   id="path26"
   style="fill-opacity:1;fill-rule:nonzero" />
		<path
   class="st0"
   d="m 332.89,364.13 c 3.36,-2.96 6.59,-6.06 9.44,-9.52 4.2,-5.11 7.53,-10.7 9.39,-17.1 1.56,-5.36 2.04,-10.81 1.44,-16.36 -0.22,-2.07 -0.75,-4.11 -0.86,-6.16 -0.27,-4.6 -2.5,-8.35 -4.88,-12.03 -3.45,-5.35 -7.9,-9.82 -12.79,-13.86 -0.86,-0.71 -1.72,-1.41 -2.53,-2.07 0.05,-0.64 0.51,-0.63 0.86,-0.78 1.02,-0.45 2.07,-0.85 3.04,-1.39 1.06,-0.59 2.05,-0.9 3.11,-0.08 0.12,0.09 0.28,0.14 0.43,0.2 0.86,0.31 1.58,0.1 2.1,-0.64 0.47,-0.66 0.7,-1.43 0.91,-2.2 0.43,-1.61 0.86,-3.22 1.29,-4.85 0.79,0.06 0.9,0.67 1.15,1.11 3.42,5.8 6.13,11.93 8.33,18.28 3.02,8.7 5.04,17.64 6.42,26.74 1.95,12.85 2.37,25.77 1.77,38.72 -0.38,8.3 -1.27,16.56 -3.2,24.67 -0.15,0.62 -0.31,1.24 -0.49,1.85 -0.06,0.21 -0.17,0.41 -0.25,0.6 -0.53,-0.04 -0.65,-0.45 -0.81,-0.8 -4.26,-9.07 -10.82,-16.11 -19,-21.76 -0.85,-0.59 -1.67,-1.22 -2.51,-1.83 -0.32,-0.17 -0.71,-0.11 -1.02,-0.31 l -0.2,0.02 -0.2,-0.01 c -0.44,0.12 -0.93,0.36 -0.94,-0.44 z"
   id="path28"
   style="fill-opacity:1;fill-rule:nonzero" />
		<path
   class="st0"
   d="m 305.23,134.57 c -0.39,-0.71 -0.22,-1.27 -0.13,-1.81 0.93,-5.75 1.89,-11.5 2.81,-17.25 0.12,-0.78 0.34,-1.38 1.21,-1.54 0.23,-0.04 0.45,-0.16 0.67,-0.26 1.93,-0.91 2.41,-2.21 1.41,-4.06 -0.53,-0.98 -1.23,-1.86 -1.81,-2.82 -1.28,-2.09 -1.08,-3.02 1,-4.32 0.88,-0.54 1.83,-0.97 2.78,-1.39 1.02,-0.45 2.08,-0.81 3.11,-1.24 3.03,-1.25 4.45,-3.47 4.3,-6.73 -0.09,-1.86 -0.6,-3.62 -1.34,-5.31 -0.81,-1.83 -1.84,-3.54 -2.98,-5.18 -1.7,-2.45 -3,-5.08 -3.75,-7.97 -0.12,-0.46 -0.17,-0.94 -0.19,-1.41 -0.01,-0.28 0.27,-0.39 0.5,-0.31 0.3,0.09 0.6,0.24 0.85,0.43 0.94,0.74 1.88,1.48 2.78,2.26 1.32,1.15 2.59,2.37 3.92,3.52 0.66,0.57 1.38,1.1 2.14,1.53 2.27,1.3 3.26,0.99 4.58,-1.35 0.41,-0.72 0.67,-0.76 1.23,-0.17 0.33,0.34 0.65,0.71 0.94,1.08 1.72,2.2 3.44,4.41 5.64,6.18 0.35,0.28 0.41,0.62 -0.09,0.92 -1.41,0.84 -1.73,2.2 -1.68,3.72 0.05,1.62 0.54,3.14 1.13,4.63 1.39,3.51 2.29,7.14 2.68,10.89 0.33,3.2 0.21,6.38 -0.69,9.49 -0.54,1.87 -1.38,3.56 -2.74,4.98 -1.57,1.63 -2.79,3.5 -3.52,5.65 -0.52,1.53 -1.47,2.62 -2.91,3.32 -1.65,0.81 -3.21,1.79 -4.62,2.98 -0.84,0.71 -1.81,0.98 -2.88,0.94 -0.48,-0.02 -0.96,-0.03 -1.43,-0.1 -3.92,-0.57 -7.8,-0.3 -11.67,0.47 -0.39,0.07 -0.78,0.14 -1.25,0.23 z"
   id="path30"
   style="fill-opacity:1;fill-rule:nonzero" />
		<path
   class="st0"
   d="m 323.65,270.88 c -1.12,-0.27 -1.91,-1.14 -2.99,-1.63 -0.16,0.1 -0.39,0.18 -0.52,0.34 -1.06,1.35 -1.06,1.36 0.39,2.34 2.92,1.96 5.97,3.7 9.25,5.01 1.34,0.53 2.7,0.96 4.11,1.28 2.31,0.54 4.58,0.62 6.95,-0.37 0.24,1.47 -0.33,2.7 -0.76,3.94 -0.09,0.27 -0.33,0.34 -0.57,0.31 -0.24,-0.02 -0.47,-0.11 -0.7,-0.17 -1.23,-0.32 -2.38,-0.09 -3.45,0.54 -3.75,2.21 -7.95,2.78 -12.16,3.27 -0.89,0.1 -1.74,-0.06 -2.58,-0.35 -3.82,-1.3 -6.62,-3.77 -8.41,-7.38 -1.15,-2.32 -1.75,-4.79 -1.95,-7.36 -0.35,-4.5 0.16,-8.93 1.21,-13.3 0.54,-2.25 1.18,-4.48 2.11,-6.61 0.51,-1.17 1.11,-2.3 1.84,-3.35 2,-2.9 4.74,-3.91 8.14,-3.14 1.32,0.3 2.61,0.74 3.92,1.08 1.09,0.29 2.2,0.43 3.3,0.07 0.66,-0.22 0.84,-0.81 0.35,-1.27 -0.4,-0.38 -0.77,-0.88 -1.38,-0.88 -1.63,-0.02 -3.09,-0.75 -4.65,-1.08 -0.78,-0.16 -1.56,-0.33 -2.35,-0.47 -0.42,-0.08 -0.76,-0.24 -0.94,-0.64 -1.16,-2.65 -3.06,-4.61 -5.78,-5.99 1.24,-1.57 1.96,-3.23 2.01,-5.19 1.09,0.12 1.79,0.79 2.54,1.34 3.42,2.52 6.56,5.37 9.4,8.52 5.48,6.08 5.8,6.42 9.01,14.77 1,2.61 1.74,5.3 2.23,8.07 0.26,1.51 0.32,3.02 0.21,4.54 -0.05,0.71 -0.24,1.42 -0.47,2.09 -0.54,1.57 -1.68,2.47 -3.31,2.76 -1.69,0.31 -3.35,0.11 -4.99,-0.27 -2.11,-0.49 -4.13,-1.22 -6.11,-2.09 -0.51,-0.22 -1.02,-0.46 -1.55,-0.64 -0.32,-0.11 -0.63,0.01 -0.81,0.33 -0.26,0.49 -0.61,0.95 -0.55,1.55 z"
   id="path32"
   style="fill-opacity:1;fill-rule:nonzero" />
		<path
   class="st0"
   d="m 310.97,292.8 c -0.32,0.88 -0.97,1.36 -1.55,1.89 -2.88,2.67 -5.49,5.58 -7.97,8.61 -0.45,0.56 -0.89,1.13 -1.33,1.7 -3.38,4.36 -5.24,9.28 -5.5,14.8 -0.16,3.52 0.09,7.03 0.51,10.52 0.38,3.21 1.67,6.15 3.35,8.9 2.34,3.86 5.34,7.16 8.67,10.18 2.25,2.04 4.64,3.9 7.12,5.67 0.63,0.45 1.36,0.81 1.9,1.63 -1.45,1.3 -2.87,2.57 -4.29,3.84 -0.89,0.8 -1.87,0.81 -2.89,0.31 -0.43,-0.21 -0.83,-0.48 -1.22,-0.75 -8.47,-5.89 -14.83,-13.47 -18.84,-23.04 -1.76,-4.21 -2.58,-8.55 -2.45,-13.07 0.15,-4.89 1,-9.68 2.61,-14.32 0.6,-1.75 1.37,-3.4 2.39,-4.94 3.44,-5.21 7.44,-9.99 11.58,-14.65 0.37,-0.41 0.82,-0.75 1.27,-1.08 0.18,-0.14 0.42,-0.21 0.66,-0.05 1.99,1.28 4.2,2.24 5.98,3.85 z"
   id="path34"
   style="fill-opacity:1;fill-rule:nonzero" />
		<path
   class="st0"
   d="m 296.7,202.71 c -0.88,-0.77 -1.48,-1.28 -2.07,-1.81 -9.72,-8.79 -19.57,-17.42 -29.82,-25.59 -4.87,-3.88 -9.82,-7.68 -15.1,-11 -0.2,-0.13 -0.43,-0.23 -0.59,-0.4 -0.22,-0.23 -0.36,-0.51 -0.11,-0.84 1.24,-1.72 0.87,-3.66 0.77,-5.56 -0.04,-0.78 -0.21,-1.56 -0.32,-2.3 0.59,-0.55 1.11,-0.2 1.61,-0.05 2.22,0.66 4.4,1.45 6.68,1.87 0.95,0.18 1.89,0.28 2.85,0.27 3.15,-0.05 5.29,-1.6 6.28,-4.58 0.28,-0.83 0.47,-1.7 0.78,-2.52 0.28,-0.74 0.65,-1.45 1.02,-2.16 0.17,-0.32 0.52,-0.38 0.82,-0.17 0.32,0.23 0.59,0.54 0.9,0.79 0.59,0.47 0.59,0.46 1.14,-0.35 0.08,-0.12 0.19,-0.3 0.3,-0.31 0.11,-0.01 0.32,0.14 0.34,0.25 0.67,3.21 1.7,6.32 2.82,9.39 -0.03,1.58 0.52,3.13 0.3,4.73 -0.08,0.54 -0.39,0.87 -0.92,0.95 -0.55,0.08 -1.11,0.09 -1.67,0.12 -3.35,0.22 -6.65,0.83 -9.95,1.44 -1.13,0.21 -1.87,0.83 -2.39,1.79 -0.61,1.12 -0.44,2.14 0.45,3.06 0.52,0.53 1.15,0.85 1.83,1.09 2.96,1.07 5.92,1.22 8.88,0 0.37,-0.15 0.75,-0.28 1.1,-0.47 1.26,-0.69 2.47,-0.89 3.87,-0.23 1.57,0.74 2.99,1.54 3.57,3.29 0.48,1.45 0.98,2.89 1.98,4.06 0.65,0.75 1.14,1.79 2.4,1.73 0.54,-0.03 0.61,0.46 0.77,0.77 1.52,2.81 2.97,5.65 4.5,8.46 1.56,2.88 3.18,5.72 4.78,8.58 0.27,0.49 0.54,0.98 0.85,1.45 1.11,1.64 1.11,1.64 1.35,4.25 z"
   id="path36"
   style="fill-opacity:1;fill-rule:nonzero" />
		<path
   class="st0"
   d="m 345.57,395.65 c 0.76,1.26 0.9,2.63 1.11,3.95 0.24,1.49 0.33,3.01 0.47,4.52 0.04,0.47 -0.04,0.97 0.24,1.4 0.3,0.45 0.01,0.75 -0.28,1.02 -0.47,0.43 -0.95,0.86 -1.45,1.25 -4.37,3.43 -9.42,4.54 -14.85,4.35 -3.45,-0.12 -6.83,-0.75 -10.14,-1.69 -5.55,-1.58 -10.82,-3.87 -15.96,-6.46 -0.94,-0.47 -1.31,-1.07 -1.17,-2.07 0.09,-0.71 0.1,-1.43 0.19,-2.15 0.05,-0.38 0.21,-0.75 0.36,-1.28 0.73,0.31 1.15,0.95 1.86,1.07 0.72,0.11 1.43,0.09 2.15,0.03 8.12,-0.63 16.25,-1.26 24.37,-1.89 3.03,-0.23 6.05,-0.46 9.08,-0.69 1.45,-0.09 2.86,-0.28 4.02,-1.36 z"
   id="path38"
   style="fill-opacity:1;fill-rule:nonzero" />
		<path
   class="st0"
   d="m 338.85,335.86 c -1.67,-1.54 -1.88,-1.61 -3.89,-1.45 -7.72,0.62 -15.44,1.23 -23.16,1.84 -2.07,0.16 -4.14,0.33 -6.21,0.49 -0.08,0.01 -0.16,0 -0.24,0.02 -2.5,0.5 -2.34,0.09 -3.78,2.36 -2.48,-2.61 -4.19,-7.21 -4.12,-11.1 0.43,-0.28 0.63,0.23 0.95,0.31 0.38,0.1 0.75,0.26 1.14,0.31 0.39,0.05 0.8,0.01 1.19,-0.01 0.4,-0.02 0.8,-0.06 1.19,-0.1 7,-0.61 14,-1.22 21,-1.82 4.14,-0.35 8.27,-0.71 12.41,-1.03 3.12,-0.24 3.12,-0.22 5.46,-1.44 0.39,4.08 -0.13,7.93 -1.94,11.62 z"
   id="path40"
   style="fill-opacity:1;fill-rule:nonzero" />
		<path
   class="st4"
   d="m 266.61,86.82 c 0.03,0.29 0.06,0.58 0.08,0.87 0.41,0.61 -0.03,1.39 0.37,2 1.4,7.37 2.82,14.74 4.17,22.12 0.43,2.35 0.58,4.75 0.96,7.12 0.85,5.29 2.42,10.41 3.71,15.6 0.37,1.47 0.73,2.95 1.01,4.43 0.48,2.52 1.24,4.95 2.05,7.38 2.32,6.88 4.68,13.75 7.79,20.34 0.85,1.8 1.78,3.57 2.74,5.32 0.54,0.97 1.08,2.02 1.87,2.76 1.4,1.31 1.8,2.86 1.93,4.67 0.29,3.98 0.88,7.93 1.56,11.87 0.04,0.21 -0.03,0.44 -0.04,0.66 -0.42,-0.01 -0.58,-0.32 -0.72,-0.58 -6.3,-11.48 -12.48,-23.02 -17.09,-35.32 -1.15,-3.07 -2.14,-6.19 -2.62,-9.44 -0.33,-2.29 -0.61,-4.59 -0.94,-6.88 -1.22,-8.62 -2.86,-17.16 -4.61,-25.69 -0.48,-2.36 -0.73,-4.73 -0.97,-7.11 -0.47,-4.45 -1.08,-8.88 -1.27,-13.35 -0.47,-1.11 0.1,-2.33 -0.35,-3.45 -0.04,-0.77 -0.08,-1.54 -0.12,-2.32 -0.2,-0.51 -0.42,-1.03 0.49,-1 z"
   id="path42"
   style="fill-opacity:1;fill-rule:nonzero" />
		<path
   class="st0"
   d="m 299.52,310.11 c 0.27,0.56 0.03,1.07 -0.08,1.62 -0.29,1.44 0.37,2.3 1.84,2.43 0.71,0.06 1.44,0.04 2.15,-0.01 2.94,-0.21 5.89,-0.44 8.83,-0.69 4.93,-0.41 9.86,-0.84 14.78,-1.28 2.23,-0.2 4.45,-0.4 6.67,-0.65 1.19,-0.13 2.38,-0.32 3.08,-1.53 2.62,3.04 3.15,6.63 3.45,10.42 -0.66,-0.22 -1.21,-0.52 -1.8,-0.58 -0.79,-0.08 -1.59,-0.02 -2.39,0.04 -5.25,0.4 -10.5,0.83 -15.75,1.23 -5.17,0.4 -10.34,0.78 -15.51,1.17 -0.88,0.07 -1.75,0.12 -2.62,0.21 -2.86,0.3 -2.86,0.3 -5.05,1.53 -0.41,-2.42 -0.06,-4.76 0.21,-7.09 0.28,-2.4 1.18,-4.62 2.23,-6.78 z"
   id="path44"
   style="fill-opacity:1;fill-rule:nonzero" />
		<path
   class="st0"
   d="m 293.58,118.87 c 7.54,-13.77 12.42,-28.53 16.24,-44.21 0.62,1.66 1,2.77 1.44,3.85 0.85,2.08 1.97,4 3.24,5.84 1.32,1.91 2.45,3.92 3.15,6.15 0.39,1.23 0.59,2.47 0.46,3.77 -0.14,1.49 -0.88,2.54 -2.22,3.15 -0.65,0.3 -1.33,0.54 -1.99,0.82 -1.17,0.5 -2.37,0.96 -3.51,1.52 -0.78,0.38 -1.55,0.84 -2.23,1.38 -2.16,1.71 -2.57,3.69 -1.3,6.12 0.41,0.77 0.92,1.49 1.4,2.22 1.26,1.91 1.23,2.01 -1.1,2.45 -1.72,0.32 -3.46,0.56 -5.1,1.24 -2.15,0.9 -4.1,2.12 -5.93,3.56 -0.85,0.7 -1.69,1.43 -2.55,2.14 z"
   id="path46"
   style="fill-opacity:1;fill-rule:nonzero" />
		<path
   class="st0"
   d="m 305.54,393.95 c 0.66,-3.2 4.3,-9.31 6.93,-11.63 0.51,2.04 1.96,2.49 3.8,2.33 2.62,-0.22 5.25,-0.4 7.87,-0.63 2.54,-0.23 5.08,-0.5 7.62,-0.76 0.32,-0.03 0.64,-0.04 0.95,-0.1 1.51,-0.29 1.86,-0.69 2.13,-2.36 0.02,-0.12 0.12,-0.23 0.18,-0.35 3.09,1.86 7.3,7.02 8.57,10.46 -12.67,0.86 -25.34,2.08 -38.05,3.04 z"
   id="path48"
   style="fill-opacity:1;fill-rule:nonzero" />
		<path
   class="st0"
   d="m 328.13,372.26 c 1.88,-1.89 3.78,-3.67 5.78,-5.26 4.25,2.75 8.11,5.71 11.5,9.25 3.45,3.6 6.38,7.57 8.59,12.05 0.49,1 0.86,2.07 1.38,3.06 0.78,1.51 0.58,2.81 -0.4,4.22 -1.46,2.09 -2.7,4.34 -4.06,6.5 -0.28,0.45 -0.56,0.95 -1.26,1.22 -0.15,-0.97 -0.31,-1.81 -0.41,-2.66 -0.88,-7.33 -4.04,-13.56 -9.03,-18.91 -2.91,-3.12 -6.28,-5.67 -9.91,-7.89 -0.73,-0.45 -1.55,-0.8 -2.18,-1.58 z"
   id="path50"
   style="fill-opacity:1;fill-rule:nonzero" />
		<path
   class="st4"
   d="m 323.8,354.37 c -1.6,1.33 -3.19,2.65 -4.79,3.98 -0.29,0.14 -0.54,0.09 -0.75,-0.15 0.08,-0.14 0.16,-0.29 0.23,-0.43 0.25,-0.79 0.4,-1.59 -0.08,-2.36 -0.67,-0.81 -1.51,-1.41 -2.36,-2 -3.61,-2.5 -6.98,-5.3 -10.03,-8.47 -0.6,-0.63 -1.17,-1.29 -1.72,-1.89 0.07,-0.18 0.09,-0.26 0.13,-0.32 0.04,-0.06 0.1,-0.13 0.16,-0.14 10.53,-0.85 21.06,-1.7 31.58,-2.55 0.12,0.8 -0.38,1.17 -0.69,1.6 -2.1,2.92 -4.51,5.57 -7.03,8.13 -0.67,0.68 -1.29,1.39 -1.94,2.09 -0.06,0.29 -0.2,0.5 -0.52,0.54 l 0.01,-0.04 c -1.02,0.78 -1.26,-0.16 -1.27,-0.75 -0.03,-1.69 -1.06,-1.93 -2.38,-1.91 -0.87,0.01 -1.75,-0.03 -2.62,0.04 -0.73,0.06 -1.51,0.15 -1.71,1.01 -0.2,0.88 0.58,1.21 1.13,1.65 0.85,0.68 1.82,0.9 2.9,0.89 0.77,0 1.67,-0.08 1.75,1.08 z"
   id="path52"
   style="fill-opacity:1;fill-rule:nonzero" />
		<path
   class="st0"
   d="m 299.59,310.17 c 3.26,-5.15 8.12,-10.88 11.72,-13.81 0.52,-0.04 0.36,0.4 0.4,0.65 0.18,1.15 0.97,1.66 1.99,1.7 1.91,0.07 3.83,0.1 5.73,-0.26 0.56,-0.1 1.07,-0.28 1.48,-0.71 0.44,-0.46 0.4,-1.01 0.42,-1.57 0,-0.12 0.14,-0.24 0.22,-0.35 3.4,1.89 9.74,7.3 11.52,9.82 -0.18,0.41 -0.55,0.23 -0.83,0.24 -6.3,0.31 -12.59,0.62 -18.86,1.35 -3.01,0.35 -6.03,0.61 -9.06,0.84 -1.74,0.13 -3.3,0.54 -4.36,2.07 -0.04,0.06 -0.28,-0.01 -0.43,-0.03 -0.01,0 0.06,0.06 0.06,0.06 z"
   id="path54"
   style="fill-opacity:1;fill-rule:nonzero" />
		<path
   class="st5"
   d="m 243.22,163.43 c 3.76,1.79 7.22,4.09 10.59,6.51 6.88,4.94 13.43,10.3 19.89,15.77 7.5,6.35 14.86,12.85 22.1,19.49 0.47,0.43 0.93,0.87 1.4,1.31 0.3,0.28 0.5,0.62 0.55,1.03 0.32,2.45 0.65,4.9 0.96,7.36 0.01,0.11 -0.11,0.24 -0.18,0.37 -0.5,-0.02 -0.63,-0.45 -0.85,-0.76 -10.12,-14.57 -22.65,-26.79 -36.59,-37.65 -5.93,-4.62 -12.13,-8.83 -18.46,-12.88 -0.05,-0.45 0.09,-0.69 0.59,-0.55 z"
   id="path56"
   style="fill-opacity:1;fill-rule:nonzero" />
		<path
   class="st6"
   d="m 299.02,118.15 c -1.96,5.8 -3.38,11.73 -4.51,17.87 -0.84,-0.02 -1.5,-0.3 -2.16,-0.46 -2.44,-0.59 -4.75,-0.48 -6.78,1.19 -0.24,0.2 -0.5,0.44 -0.84,0.23 -0.3,-0.19 -0.26,-0.54 -0.28,-0.85 -0.06,-1.14 0.28,-2.21 0.68,-3.25 0.48,-1.28 1.15,-2.46 2.03,-3.5 2.87,-3.42 5.84,-6.76 9.22,-9.7 0.71,-0.62 1.48,-1.17 2.22,-1.75 0.14,0.06 0.28,0.14 0.42,0.22 z"
   id="path58"
   style="fill-opacity:1;fill-rule:nonzero" />
		<path
   class="st6"
   d="m 293.78,257.41 c 2.86,0.28 5.31,-0.21 7.78,-0.29 2.45,-0.08 4.88,-0.56 7.5,-0.48 -0.31,1.86 -0.58,3.5 -0.86,5.14 -0.08,0.47 -0.2,0.94 -0.22,1.42 -0.1,1.75 -0.19,1.84 -1.92,1.98 -1.94,0.16 -2.32,0.55 -3.37,2.56 -3.81,-2.55 -6.6,-5.94 -8.91,-10.33 z"
   id="path60"
   style="fill-opacity:1;fill-rule:nonzero" />
		<path
   class="st7"
   d="m 219.66,154.32 c 2.44,0.74 11.9,5.72 14.36,7.55 -0.09,0.1 -0.17,0.27 -0.28,0.29 -3.86,0.63 -7.73,1.14 -11.64,0.53 -3.96,-0.61 -3.57,-1.58 -3.28,-4.42 0.14,-1.33 0.55,-2.63 0.84,-3.95 z"
   id="path62"
   style="fill-opacity:1;fill-rule:nonzero" />
		<path
   class="st8"
   d="m 327.12,428.24 c -0.59,-4.83 -2.04,-9.33 -4.98,-13.28 -0.37,-0.5 -0.77,-0.99 -1.1,-1.43 0.16,-0.41 0.38,-0.37 0.6,-0.32 2.73,0.6 5.46,1.17 8.26,1.29 0.79,0.03 0.97,0.31 0.76,1.07 -1.32,4.61 -2.02,9.34 -2.68,14.08 -1.26,0.11 -0.3,-1.1 -0.86,-1.41 z"
   id="path64"
   style="fill-opacity:1;fill-rule:nonzero" />
		<path
   class="st9"
   d="m 327.1,369.78 c -0.18,0.15 -0.39,0.29 -0.55,0.46 -1.41,1.43 -1.38,2.78 0.14,4.07 0.54,0.46 1.18,0.82 1.78,1.21 0.86,0.56 1.72,1.11 2.51,1.62 -0.01,0.64 -0.37,0.55 -0.66,0.57 -4.23,0.26 -8.45,0.52 -12.68,0.77 -0.4,0.02 -0.8,0.03 -1.19,0.01 -0.32,-0.01 -0.39,-0.33 -0.28,-0.49 0.27,-0.39 0.61,-0.74 0.95,-1.07 2.93,-2.84 6.06,-5.44 9.43,-7.75 0.46,-0.06 0.67,0.12 0.55,0.6 z"
   id="path66"
   style="fill-opacity:1;fill-rule:nonzero" />
		<path
   class="st9"
   d="m 235.43,156.34 c 2.34,-0.24 4.34,-0.35 6.22,-1.09 0.27,-0.11 0.62,-0.05 0.93,0 0.71,0.1 1.42,0.33 2.12,0.32 0.68,-0.02 1.35,-0.27 2.15,-0.45 0.57,2.45 1.13,4.82 -0.03,7.22 -1.65,-0.6 -9.54,-4.72 -11.39,-6 z"
   id="path68"
   style="fill-opacity:1;fill-rule:nonzero" />
		<path
   class="st10"
   d="m 123.31,134.2 c 6.96,-1.92 13.89,-3.28 21.02,-2.73 0.12,0.37 -0.03,0.56 -0.26,0.63 -3.9,1.14 -7.76,2.42 -11.82,2.92 -2.65,0.32 -5.25,0.15 -7.84,-0.41 -0.38,-0.09 -0.74,-0.28 -1.1,-0.41 z"
   id="path70"
   style="fill-opacity:1;fill-rule:nonzero" />
		<path
   class="st11"
   d="m 323.8,354.37 c -0.09,-0.12 -0.17,-0.32 -0.27,-0.33 -0.22,-0.04 -0.48,-0.02 -0.69,0.05 -2.52,0.92 -4.32,-0.31 -5.86,-2.05 -1.1,-1.24 -0.63,-2.66 0.95,-3.14 0.45,-0.14 0.93,-0.2 1.4,-0.22 1.35,-0.06 2.7,-0.09 4.05,-0.11 0.39,-0.01 0.8,0.02 1.18,0.11 1.13,0.27 1.66,1.21 1.34,2.36 -0.1,0.38 -0.36,0.73 -0.41,1.11 -0.04,0.31 0.33,0.15 0.51,0.22 -0.35,1.09 -1.43,1.37 -2.2,2 z"
   id="path72"
   style="fill-opacity:1;fill-rule:nonzero" />
		<path
   class="st12"
   d="m 301.9,326.16 c -0.56,0.05 -1.11,0.11 -1.67,0.13 -0.33,0.01 -0.65,-0.13 -0.64,-0.53 0.01,-0.35 0.27,-0.57 0.61,-0.62 0.87,-0.13 1.74,-0.26 2.61,-0.33 4.86,-0.38 9.71,-0.73 14.57,-1.11 5.41,-0.42 10.82,-0.86 16.24,-1.26 1.35,-0.1 2.71,-0.14 4.06,-0.18 0.11,0 0.29,0.15 0.32,0.27 0.07,0.25 -0.08,0.5 -0.31,0.55 -0.46,0.1 -0.94,0.14 -1.42,0.18 -8.11,0.68 -16.23,1.34 -24.34,2.02 -3.34,0.28 -6.68,0.61 -10.02,0.92 -0.01,-0.01 -0.01,-0.02 -0.01,-0.04 z"
   id="path74"
   style="fill-opacity:1;fill-rule:nonzero" />
		<path
   class="st13"
   d="m 309.73,397.21 c -0.88,0 -1.75,0.01 -2.63,-0.01 -0.12,0 -0.36,-0.19 -0.34,-0.26 0.04,-0.22 0.13,-0.48 0.29,-0.61 0.17,-0.13 0.44,-0.15 0.67,-0.17 3.82,-0.33 7.63,-0.65 11.45,-0.96 7.31,-0.61 14.63,-1.21 21.94,-1.81 0.16,-0.01 0.31,-0.06 0.47,-0.07 0.72,-0.05 1.42,0.33 1.3,0.71 -0.18,0.58 -0.72,0.55 -1.18,0.58 -3.89,0.33 -7.79,0.65 -11.69,0.96 -6.04,0.48 -12.09,0.94 -18.13,1.41 -0.72,0.06 -1.43,0.09 -2.15,0.14 0,0.04 0,0.07 0,0.09 z"
   id="path76"
   style="fill-opacity:1;fill-rule:nonzero" />
		<path
   class="st14"
   d="m 329.84,308.37 c 0.89,0.03 1.92,-0.24 2.95,0.07 0.12,0.04 0.25,0.17 0.3,0.3 0.13,0.31 -0.14,0.46 -0.34,0.48 -1.42,0.18 -2.85,0.35 -4.28,0.47 -6.51,0.56 -13.03,1.1 -19.55,1.65 -1.83,0.15 -3.65,0.31 -5.48,0.44 -0.31,0.02 -0.63,-0.05 -0.94,-0.1 -0.06,-0.01 -0.15,-0.09 -0.15,-0.12 0.01,-0.15 0.02,-0.33 0.1,-0.44 0.36,-0.52 0.96,-0.53 1.5,-0.59 1.82,-0.2 3.65,-0.38 5.47,-0.56 6.75,-0.69 13.5,-1.25 20.42,-1.6 z"
   id="path78"
   style="fill-opacity:1;fill-rule:nonzero" />
		<path
   class="st15"
   d="m 277.53,164.06 c 0.8,1.56 1.47,2.96 2.1,4.68 -1.05,-0.18 -1.72,-0.61 -2.4,-0.92 -1.72,-0.77 -3.36,-0.78 -5.06,0.09 -0.92,0.47 -1.9,0.83 -2.9,1.1 -2.08,0.57 -4.11,0.24 -6.07,-0.57 -0.29,-0.12 -0.6,-0.29 -0.54,-0.69 0.06,-0.38 0.39,-0.48 0.69,-0.54 0.86,-0.18 1.72,-0.32 2.58,-0.48 2.59,-0.48 5.19,-0.85 7.83,-0.97 1.95,-0.09 1.97,-0.13 3.77,-1.7 z"
   id="path80"
   style="fill-opacity:1;fill-rule:nonzero" />
		<path
   class="st16"
   d="m 325.25,467.24 c -0.07,3.74 -0.09,7.48 -0.23,11.22 -0.27,7.08 -0.34,14.17 -0.3,21.26 0.02,3.2 -0.37,6.35 -0.62,9.53 -1.27,-1.67 -0.46,-3.53 -0.5,-5.31 0.22,-11 0.42,-22 0.68,-32.99 0.07,-2.87 0.29,-5.73 0.44,-8.6 1.38,1.5 0.46,3.25 0.53,4.89 z"
   id="path82"
   style="fill-opacity:1;fill-rule:nonzero" />
		<path
   class="st17"
   d="m 321.37,532.38 c -0.47,3.88 -1.23,7.69 -2.49,11.4 -0.49,1.43 -1.08,2.83 -1.96,4.07 -0.23,0.32 -0.53,0.58 -0.81,0.85 -0.05,0.05 -0.15,0.04 -0.22,0.05 -0.18,0.03 -0.31,-0.07 -0.29,-0.27 0.06,-0.63 0.1,-1.26 0.23,-1.88 0.69,-3.28 1.78,-6.43 2.93,-9.57 0.85,-2.32 1.64,-4.65 2.19,-7.06 0.16,-0.34 0.11,-0.73 0.31,-1.05 0.04,-0.29 0.08,-0.57 0.12,-0.86 0.45,-0.12 0.66,0 0.5,0.5 -0.06,0.61 -0.11,1.22 -0.17,1.82 -0.34,0.62 0.05,1.38 -0.34,2 z"
   id="path84"
   style="fill-opacity:1;fill-rule:nonzero" />
		<path
   class="st18"
   d="m 307.58,340.07 c -2.28,0.13 -3.01,-0.05 -2.75,-0.47 0.58,-0.92 1.57,-0.48 2.38,-0.55 5.17,-0.47 10.34,-0.87 15.51,-1.29 3.98,-0.32 7.96,-0.62 11.93,-0.92 0.23,-0.02 0.46,0.04 0.69,0.09 0.19,0.04 0.25,0.18 0.18,0.38 -0.02,0.07 -0.04,0.17 -0.09,0.19 -0.3,0.09 -0.6,0.2 -0.91,0.23 -2.54,0.25 -5.08,0.51 -7.62,0.72 -6.52,0.55 -13.04,1.09 -19.32,1.62 z"
   id="path86"
   style="fill-opacity:1;fill-rule:nonzero" />
		<path
   class="st19"
   d="m 325.25,467.24 c -0.04,-0.95 -0.09,-1.9 -0.12,-2.84 -0.02,-0.71 0.09,-1.44 -0.4,-2.05 -0.01,-0.72 -0.09,-1.44 -0.03,-2.15 0.4,-5.25 0.84,-10.5 1.24,-15.75 0.26,-3.42 0.67,-6.82 1.04,-10.23 0.22,-1.97 0.11,-3.98 0.15,-5.98 0.28,0.47 0.56,0.94 0.84,1.41 0,0.47 0.06,0.96 0,1.42 -0.7,4.81 -1.02,9.65 -1.37,14.49 -0.48,6.51 -0.84,13.03 -1.06,19.56 -0.03,0.71 -0.19,1.42 -0.29,2.12 z"
   id="path88"
   style="fill-opacity:1;fill-rule:nonzero" />
		<path
   class="st20"
   d="m 329.51,273.32 c 1.69,0.43 3.35,0.94 5.11,1.1 2.54,0.22 4.92,-0.06 6.96,-1.73 0.47,0.37 0.2,0.71 0.04,1.05 -0.76,1.6 -2.12,2.29 -3.8,2.48 -1.61,0.18 -3.17,-0.15 -4.69,-0.6 -1.6,-0.47 -3.15,-1.08 -4.64,-1.84 0.05,-0.8 0.49,-0.72 1.02,-0.46 z"
   id="path90"
   style="fill-opacity:1;fill-rule:nonzero" />
		<path
   class="st21"
   d="m 306.45,253.13 c 1.03,-0.07 2.06,-0.16 3.1,-0.19 0.22,-0.01 0.47,0.18 0.4,0.47 -0.05,0.21 -0.16,0.46 -0.32,0.59 -0.17,0.13 -0.43,0.17 -0.66,0.19 -4.05,0.32 -8.1,0.64 -12.15,0.93 -1.17,0.08 -1.97,-0.25 -1.8,-0.65 0.31,-0.74 1.07,-0.58 1.66,-0.62 3.26,-0.27 6.52,-0.49 9.77,-0.72 0,0 0,0 0,0 z"
   id="path92"
   style="fill-opacity:1;fill-rule:nonzero" />
		<path
   class="st22"
   d="m 317.13,382.23 c -0.08,0 -0.55,0.01 -1.03,-0.01 -0.11,-0.01 -0.29,-0.13 -0.31,-0.23 -0.02,-0.13 0.04,-0.31 0.13,-0.43 0.41,-0.57 1,-0.71 1.67,-0.75 2.38,-0.14 4.75,-0.32 7.13,-0.47 1.66,-0.11 3.33,-0.22 4.99,-0.29 0.46,-0.02 0.94,0.08 1.4,0.17 0.13,0.02 0.3,0.17 0.33,0.3 0.07,0.28 -0.18,0.38 -0.4,0.42 -0.39,0.08 -0.78,0.17 -1.17,0.2 -4.11,0.37 -8.23,0.71 -12.74,1.09 z"
   id="path94"
   style="fill-opacity:1;fill-rule:nonzero" />
		<path
   class="st23"
   d="m 321.88,528.55 c -0.17,-0.17 -0.34,-0.33 -0.5,-0.5 -0.15,-1.05 0.26,-2.04 0.43,-3.05 0.87,-5.42 1.28,-10.86 1.44,-16.34 0.04,-1.58 -0.02,-3.18 0.38,-4.73 0.04,1.01 0.08,2.03 0.11,3.04 0.03,0.77 -0.12,1.58 0.38,2.27 -0.16,2.13 -0.27,4.27 -0.5,6.39 -0.39,3.71 -0.85,7.4 -1.28,11.1 -0.08,0.64 -0.02,1.29 -0.46,1.82 z"
   id="path96"
   style="fill-opacity:1;fill-rule:nonzero" />
		<path
   class="st24"
   d="m 337.12,244.12 c 0.23,0.21 0.51,0.38 0.69,0.62 2.82,3.87 4.62,8.18 5.5,12.88 0.11,0.61 0.28,1.26 -0.04,1.88 -0.6,-0.3 -0.52,-0.95 -0.66,-1.43 -1.26,-4.39 -2.98,-8.59 -5.04,-12.66 -0.21,-0.42 -0.54,-0.81 -0.4,-1.33 z"
   id="path98"
   style="fill-opacity:1;fill-rule:nonzero" />
		<path
   class="st25"
   d="m 192.04,134.96 c 3.62,0.11 7.16,0.52 10.7,0.9 0.46,0.05 0.96,0.1 1.3,0.5 0.08,0.1 0.08,0.28 0.08,0.42 0,0.05 -0.08,0.12 -0.14,0.14 -0.15,0.05 -0.31,0.12 -0.46,0.1 -3.47,-0.31 -6.98,-0.4 -10.38,-1.28 -0.3,-0.08 -0.59,-0.21 -0.86,-0.36 -0.11,-0.04 -0.14,-0.22 -0.24,-0.42 z"
   id="path100"
   style="fill-opacity:1;fill-rule:nonzero" />
		<path
   class="st26"
   d="m 400.89,78.63 c 0.05,0.52 -0.25,0.91 -0.54,1.28 -2.34,3 -4.7,6 -7.06,8.99 -0.18,0.23 -0.36,0.49 -0.7,0.49 -0.22,-0.24 -0.06,-0.44 0.06,-0.63 2.35,-3.5 5.02,-6.74 7.88,-9.84 0.1,-0.11 0.26,-0.17 0.4,-0.25 -0.01,-0.01 -0.04,-0.04 -0.04,-0.04 z"
   id="path102"
   style="fill-opacity:1;fill-rule:nonzero" />
		<path
   class="st27"
   d="m 243.22,163.43 c -0.19,0.18 -0.38,0.37 -0.57,0.55 -2.62,-1.23 -5,-2.86 -7.44,-4.4 -0.1,-0.06 -0.11,-0.27 -0.17,-0.41 0,0 -0.03,0.04 -0.03,0.04 0.99,0.1 1.79,0.66 2.62,1.1 1.88,1.01 3.89,1.78 5.59,3.12 z"
   id="path104"
   style="fill-opacity:1;fill-rule:nonzero" />
		<path
   class="st28"
   d="m 327.1,369.78 c -0.18,-0.2 -0.36,-0.41 -0.54,-0.61 1.99,-1.84 4.15,-3.45 6.34,-5.04 0.31,0.14 0.63,0.29 0.94,0.43 -1.27,0.53 -2.3,1.38 -3.3,2.3 -1.12,1.01 -2.11,2.17 -3.44,2.92 z"
   id="path106"
   style="fill-opacity:1;fill-rule:nonzero" />
		<path
   class="st29"
   d="m 377.06,108.48 c -0.21,-0.21 -0.42,-0.41 -0.63,-0.62 1.55,-2.11 3.31,-4.02 5.3,-5.71 l -0.04,-0.04 c -0.01,0.15 0.03,0.34 -0.05,0.45 -1.41,2.06 -2.82,4.13 -4.58,5.92 z"
   id="path108"
   style="fill-opacity:1;fill-rule:nonzero" />
		<path
   class="st30"
   d="m 318.26,358.2 c 0.25,0.05 0.5,0.1 0.75,0.15 -1.79,1.89 -3.78,3.54 -5.87,5.09 -0.15,-0.14 -0.3,-0.27 -0.45,-0.41 1.8,-1.67 3.52,-3.44 5.57,-4.83 z"
   id="path110"
   style="fill-opacity:1;fill-rule:nonzero" />
		<path
   class="st31"
   d="m 266.61,86.82 c -0.17,0.33 -0.33,0.67 -0.5,1 -0.51,-2.13 -0.62,-5.16 -0.2,-7.5 0.18,2.18 0.73,4.3 0.7,6.5 z"
   id="path112"
   style="fill-opacity:1;fill-rule:nonzero" />
		<path
   class="st32"
   d="m 175.31,129.42 c 2.33,-0.42 4.58,-0.94 7.29,-0.3 -1.49,0.58 -2.64,0.44 -3.76,0.45 -1.18,0 -2.35,-0.09 -3.53,-0.15 z"
   id="path114"
   style="fill-opacity:1;fill-rule:nonzero" />
		<path
   class="st33"
   d="m 329.51,273.32 c -0.36,0.12 -0.78,0.08 -1.03,0.46 -1.23,-0.3 -2.25,-1 -3.3,-1.65 -0.26,-0.16 -0.48,-0.38 -0.42,-0.75 l -0.03,0.03 c 1.62,0.54 3.25,1.11 4.78,1.91 z"
   id="path116"
   style="fill-opacity:1;fill-rule:nonzero" />
		<path
   class="st34"
   d="m 315.89,296.38 c 0.22,0.01 -0.1,0.02 -0.41,-0.03 -0.12,-0.02 -0.29,-0.16 -0.3,-0.27 -0.01,-0.13 0.08,-0.31 0.18,-0.41 0.45,-0.42 1,-0.41 1.56,-0.32 0.42,0.06 0.94,0.54 0.8,0.74 -0.2,0.29 -0.52,0.27 -0.82,0.29 -0.15,0.01 -0.31,0 -1.01,0 z"
   id="path118"
   style="fill-opacity:1;fill-rule:nonzero" />
		<path
   class="st35"
   d="m 307.27,268.58 c -0.42,0.03 -0.73,-0.19 -0.98,-0.52 -0.18,-0.24 -0.1,-0.45 0.14,-0.57 0.38,-0.2 0.76,-0.18 1.12,0.04 0.23,0.14 0.28,0.37 0.22,0.62 -0.05,0.24 -0.21,0.4 -0.5,0.43 z"
   id="path120"
   style="fill-opacity:1;fill-rule:nonzero" />
		<path
   class="st31"
   d="m 266.23,90.14 c 0.61,1.1 0.54,2.27 0.35,3.45 -0.45,-1.11 -0.48,-2.27 -0.35,-3.45 z"
   id="path122"
   style="fill-opacity:1;fill-rule:nonzero" />
		<path
   class="st24"
   d="m 335.28,241.66 c 0.56,0.59 1.32,1.04 1.36,1.98 l 0.04,-0.04 c -0.82,-0.41 -1.33,-1.04 -1.35,-2 z"
   id="path124"
   style="fill-opacity:1;fill-rule:nonzero" />
		<path
   class="st30"
   d="m 318.41,355.41 c 0.77,0.76 0.78,1.55 0.08,2.36 -0.03,-0.78 -0.05,-1.57 -0.08,-2.36 z"
   id="path126"
   style="fill-opacity:1;fill-rule:nonzero" />
		<path
   class="st31"
   d="m 267.07,89.7 c -0.47,-0.6 -0.6,-1.27 -0.37,-2 0.41,0.61 0.49,1.28 0.37,2 z"
   id="path128"
   style="fill-opacity:1;fill-rule:nonzero" />
		<path
   class="st23"
   d="m 321.37,532.38 c -0.18,-0.72 -0.1,-1.39 0.34,-2 0.18,0.71 0.01,1.37 -0.34,2 z"
   id="path130"
   style="fill-opacity:1;fill-rule:nonzero" />
		<path
   class="st28"
   d="m 334.22,364.55 c 0.42,-0.17 0.77,-0.08 1.02,0.31 -0.39,0.07 -0.72,-0.08 -1.02,-0.31 z"
   id="path132"
   style="fill-opacity:1;fill-rule:nonzero" />
		<path
   class="st27"
   d="m 235.04,159.17 c -0.2,0.02 -0.43,0.1 -0.52,-0.18 0,-0.01 0.13,-0.09 0.16,-0.07 0.12,0.08 0.22,0.19 0.33,0.29 0,0 0.03,-0.04 0.03,-0.04 z"
   id="path134"
   style="fill-opacity:1;fill-rule:nonzero" />
		<path
   class="st23"
   d="m 321.25,528.92 c 0.15,0.42 0.05,0.78 -0.31,1.05 -0.12,-0.42 0.01,-0.76 0.31,-1.05 z"
   id="path136"
   style="fill-opacity:1;fill-rule:nonzero" />
		<path
   class="st33"
   d="m 324.75,271.37 c -0.44,0 -0.78,-0.23 -1.11,-0.49 0,0 0.01,-0.01 0.01,-0.01 0.35,0.18 0.71,0.36 1.06,0.54 0.01,-0.01 0.04,-0.04 0.04,-0.04 z"
   id="path138"
   style="fill-opacity:1;fill-rule:nonzero" />
		<path
   class="st24"
   d="m 336.64,243.64 c 0.36,-0.04 0.47,0.17 0.48,0.48 0,0 0.04,-0.04 0.04,-0.04 -0.39,0.07 -0.49,-0.15 -0.48,-0.48 0,0 -0.04,0.04 -0.04,0.04 z"
   id="path140"
   style="fill-opacity:1;fill-rule:nonzero" />
		<path
   class="st26"
   d="m 400.92,78.66 c 0.07,-0.06 0.14,-0.13 0.21,-0.19 -0.02,0.04 -0.03,0.11 -0.06,0.12 -0.05,0.03 -0.12,0.02 -0.18,0.03 0,0.01 0.03,0.04 0.03,0.04 z"
   id="path142"
   style="fill-opacity:1;fill-rule:nonzero" />
		<path
   class="st11"
   d="m 325.99,352.4 c 0.05,-0.3 0.23,-0.47 0.52,-0.54 -0.18,0.18 -0.35,0.36 -0.52,0.54 z"
   id="path144"
   style="fill-opacity:1;fill-rule:nonzero" />
		<path
   class="st24"
   d="m 335.32,241.61 c -0.18,0.09 -0.3,0.07 -0.35,-0.07 0.05,-0.01 0.11,-0.05 0.14,-0.03 0.06,0.04 0.11,0.11 0.17,0.16 0,-0.01 0.04,-0.06 0.04,-0.06 z"
   id="path146"
   style="fill-opacity:1;fill-rule:nonzero" />
		<path
   class="st29"
   d="m 381.73,102.15 c 0.08,-0.06 0.15,-0.12 0.23,-0.19 -0.02,0.04 -0.04,0.11 -0.07,0.13 -0.06,0.02 -0.13,0.02 -0.2,0.02 0,0 0.04,0.04 0.04,0.04 z"
   id="path148"
   style="fill-opacity:1;fill-rule:nonzero" />
		<path
   class="st36"
   d="m 322.47,351.36 c -0.03,0.07 -0.04,0.16 -0.09,0.21 -0.71,0.59 -1.27,0.62 -2.12,0.1 -0.11,-0.07 -0.2,-0.27 -0.18,-0.39 0.01,-0.09 0.21,-0.23 0.33,-0.23 0.62,-0.02 1.24,-0.01 1.86,0.01 0.2,0 0.27,0.14 0.2,0.3 z"
   id="path150"
   style="fill-opacity:1;fill-rule:nonzero" />
	</g>
</g><g
   aria-label="RADISH"
   id="text4011"
   style="font-weight:200;font-size:200px;line-height:1.25;font-family:'Fira Sans';-inkscape-font-specification:'Fira Sans, Ultra-Light';fill:#ffffff"><path
     d="m 262.34934,252.491 h 8.8 l -38,-64.8 c 18.8,-4.4 31,-14.6 31,-35.6 0,-23.2 -14.2,-36 -46.2,-36 h -31 v 136.4 h 7 v -63.6 h 31.6 z m -68.4,-70 v -60.2 h 23.4 c 28.8,0 39.4,10.6 39.4,29.8 0,21 -13.8,30.4 -37.4,30.4 z"
     id="path499" /><path
     d="m 378.54905,252.491 h 7.4 l -46.8,-136.4 h -8.6 l -46.8,136.4 h 7 l 13.2,-39.4 h 61.4 z m -72.4,-45.8 28.6,-85 28.4,85 z"
     id="path501" /><path
     d="m 440.54867,116.091 h -26 v 136.4 h 26.8 c 27,0 59.4,-12.2 59.4,-69.6 0,-55.8 -30.6,-66.8 -60.2,-66.8 z m -0.4,6.4 c 25.6,0 53.2,7.6 53.2,60.4 0,51.8 -26.6,63.2 -51.8,63.2 h -20 v -123.6 z"
     id="path503" /><path
     d="m 546.1485,116.091 h -7 v 136.4 h 7 z"
     id="path505" /><path
     d="m 622.94829,113.891 c -23,0 -38,14 -38,32.2 0,18.4 10.2,27.4 37.8,36 25.2,7.8 34.4,15 34.4,34 0,19.6 -14.6,32 -36,32 -16.6,0 -27.2,-6 -37,-15 l -4.6,4.8 c 11.2,10 23.8,16.6 41.8,16.6 25.2,0 42.8,-15.6 42.8,-38.8 0,-22.6 -12.2,-31.6 -38.8,-39.6 -24.4,-7.4 -33.2,-14.2 -33.2,-30 0,-15.2 12,-25.6 31,-25.6 13.4,0 22.4,3.8 32.4,12.8 l 4.4,-4.8 c -10,-9 -20,-14.6 -37,-14.6 z"
     id="path507" /><path
     d="m 778.74823,252.491 h 7 v -136.4 h -7 v 61.2 h -71 v -61.2 h -7 v 136.4 h 7 v -68.8 h 71 z"
     id="path509" /></g></svg>
